<?xml version="1.0" encoding="UTF-8"?>
<svg xmlns="http://www.w3.org/2000/svg" viewBox="0 0 460.8 259.2">
  <defs>
    <style>
      .cls-1 {
        fill: #06bde3;
      }

      .cls-2 {
        fill: none;
      }

      .cls-3 {
        fill: #2b163d;
      }
    </style>
  </defs>
  <g id="details">
    <g>
      <g>
        <path class="cls-2" d="m86.85,158.19l-1.1.1h0s.04.84.04.84c.32-.33.68-.65,1.07-.94Z"/>
        <path class="cls-2" d="m87.87,156.14c-.07.24-.15.47-.22.68l-.39,1.08c.82-.54,1.78-.98,2.86-1.22.79-.18,1.79-.5,2.5-.78-.12-1.14-.39-1.87-.72-2.59-3.29.44-3.65,1.61-4.03,2.83Z"/>
        <path class="cls-1" d="m22.66,122.24c4.06-1.52,8.78-2.47,11.6-3.04.75-.15,1.6-.32,1.81-.39.75-.25,5.88-2.39,8.96-3.73.35-.96,1.34-1.68,2.09-2.22.63-.45,1.89-1.31,3.37-1.98.47-.21,1.27-.61,2.29-1.11,3.57-1.76,9.49-4.68,13.52-5.93,1.09-.6,6.19-3.42,11.65-6.19,4.67-2.37,12.12-4.34,13.44-4.47.55-.12,2.3-1.06,3.46-1.69,1.33-.72,2.84-1.53,4.21-2.12l.15-.06.21-.09,1.12-.46.04.03s.1-.04.15-.06c3.55-4.72,8.52-10.39,12.31-12.69,2.57-1.56,5.42-2.39,8.25-2.39,1.76,0,3.07.32,3.68.5.33.03.7.11,1.12.21-11.17-11.32-26.7-18.35-43.86-18.35-34.03,0-61.62,27.59-61.62,61.62,0,1.81.08,3.6.24,5.38.34-.15.69-.31,1.07-.46.25-.1.49-.2.76-.3Z"/>
        <path class="cls-1" d="m83.61,166.44c-.5-1.27-.36-3.07.37-4.71.38-.85.98-1.77,1.8-2.61l-.04-.84h-.12s-.1.01-.1.01c-1.18,0-2.63-.85-2.85-3.24-.2-2.21.68-4.63,2.65-6.13l-.18-3.93c-.22-.25-.4-.56-.49-.96h0c-.02-.09-.07-.27-.13-.53-.28.03-.56.06-.76.06-.71,0-1.21-.29-1.49-.53h0s-.03-.02-.03-.02c-.98-.8-1.92-1.73-2.73-2.71-.34.05-.62.08-.89.08-.04,0-.08,0-.12,0-.51-.02-1.24-.16-2.84-.48-1.36-.27-3.05-.61-4.86-.9-.85-.04-1.73-.14-2.63-.28-.27-.04-.54-.09-.82-.14l-.22-.04c-.82-.07-1.57-.1-2.22-.1-.44,0-.86.02-1.23.05-3.54.29-6.37.68-8.4,1.16-.25.06-.48.09-.7.09-.75,0-1.42-.33-1.84-.87-.64.05-1.22.08-1.62.08-.49,0-1.02-.04-1.54-.35-.13-.07-.25-.16-.36-.24-1,.11-2.45.25-3.45.25-2.32,0-2.98-1.12-3.13-2.05-.02-.15-.04-.31-.03-.48-.98.12-1.86.2-2.67.23-.58.03-1.23.04-1.91.04-1.55,0-3.38-.07-5.01-.21-1.99-.16-2.76-.3-3.23-.53-.53.12-1.35.32-2.2.53-1.46.37-2.77.69-3.89.92,8.14,24.51,31.25,42.19,58.49,42.19,1.5,0,2.99-.07,4.47-.18l-.48-10.55-1.09-.46c-.48-.2-1.12-.65-1.5-1.62Zm2.89,12.53v-.02s0,.02,0,.02Z"/>
        <path class="cls-1" d="m130.1,98.71c-.92,2.06-1.72,3.83-1.99,4.51-.16.4-.41.81-.78,1.25-.38,1.07-.81,2.16-1.28,3.24-.2.47-.42.96-.7,1.54l-.06.14-.08.13c-2.82,4.39-10.24,14.63-18.1,22l-.13.13c-.06.06-.12.12-.18.17-.15.17-1.04,1.17-1.35,2.42-.25,1.02-1.71,6.47-2.19,7.37-.43.8-1.24,1.3-2.12,1.3-.19,0-.36-.02-.53-.06l1.2,4.72c1.82,1.07,3.28,2.31,3.72,3.1.02.04.06.09.09.14.54.87,1.8,2.89.42,6.4l-.29.74c.13.09.27.18.41.29l.04.03.02.02c.58.44,1.66,1.27,2.33,2.68.81,1.7.77,3.65-.12,5.79l-1.09,2.62,1.03,4.05c20.96-9.84,35.47-31.12,35.47-55.8,0-10.69-2.72-20.75-7.51-29.51-.6.13-1.22.25-1.82.37-.61,1.68-1.89,4.64-4.4,10.22Z"/>
      </g>
      <path class="cls-3" d="m139.67,79.52c-1.71-1.02-5.21-1.48-7.99-1.67-.2-.05-.42-.06-.66-.04,0,0,0,0,0,0-.19-.01-.37-.02-.54-.03-1.58-.22-4.83-1.42-5.84-1.42,0,0-4.78-1.79-10.34,1.59-3.41,2.08-8.09,7.39-11.41,11.76-.15.39-.25,1.05.19,1.83.87,1.34,2.13,3.08,3.27,4.53,2.28,2.9,3.14,6.75,3.14,6.75-6.62-7.72-15.04-7.71-17.02-7.59-.32.12-.61.19-.82.2-.59.02-7.93,1.87-12.58,4.23-6.16,3.12-11.78,6.27-11.78,6.27-4.97,1.49-13.55,5.99-15.77,7-2.21,1.01-4.33,2.72-4.26,2.9.08.18,1.37-.02,1.28.16-.09.19-10.59,4.6-11.68,4.96-1.09.35-7.95,1.39-13.32,3.4-.25.09-.48.19-.72.28-4.79,1.94-6.31,4.08-5.82,3.78.18-.11.84-.33,1.66-.55,1.44-.4,3.39-.83,4.1-.82,1.11,0,9.45-1.18,9.19-.99-.27.19-.83.42-7.99,1.66-4.62.8-6.85,2.74-7.86,4.02-.56.71-.75,1.22-.75,1.22,0,0,1.92,1.13,3.89,1,.82-.05,3.31-.44,5.94-.87.66.05,1.33.09,2.02.13-5.6,1.52-6.01,2-6.01,2,1.95-.06,7.21-1.63,8.74-1.88.23,0,.48.02.72.02.05.06.12.14.23.23.25.2,5.36.66,9.08.49,1.01-.05,2.05-.16,3.04-.29,2.65-.35,4.95-.85,5.45-.73.69.17,4.41.55,4.41.55-.95.23-1.78.43-2.52.61-4.52,1.13-5.43,1.57-5.36,1.98.08.48,5.2-.19,5.2-.19,0,0,.31.45.67.67.36.21,6.87-.55,5.76-.29-1.11.26-2.63,1.3-1.71,1.09.92-.21,3.44-.77,8.72-1.21,1.18-.1,2.53-.05,3.93.07.37.06.74.13,1.09.19.88.15,1.72.23,2.51.26,3.59.57,6.81,1.35,7.54,1.38.43.01,1.1-.13,1.85-.33,1.49,2.12,3.25,3.47,3.3,3.52.02.02.56-.03,1.35-.16.51.29.99.58,1.44.88.16.89.32,1.45.33,1.49,0,.03.29.18.73.33.23.75.74,1.53,1.64,2.32.7.62,1.26,1.54,1.82,2.16-.57.72-.83,1.21-2.24,1.46-4.63.83-4.3,6.35-3.24,6.25.65-1.79.77-4.74,7.76-5.13.61,1.62,1.62,2.78,1.62,6.24-.82.73-3.26,1.46-4.3,1.69-2.28.51-3.88,2.18-4.59,3.78-.72,1.61-.52,3.15-.03,3.36.66-.78,1.5-3.28,4.87-4.6,2.24-.88,5.98-1.18,9.56-.28,4.22,1.07,4.83,2.67,5.94,4.78,1.49-3.56-.56-5.1-1.53-5.84-1.67-1.22-1.84-.77-4.57-2.27-1.6-.88-3.05-4.53-4.65-6.9.14,0,.29,0,.43,0,4.35.09,6.44,2.57,7.9,5.51,1.09-2.77-.02-3.98-.38-4.63-.37-.66-3.56-3.09-6.59-3.83-1.97-.48-2.8-1.74-5.18-3.83-.02-.1-.03-.2-.04-.29.51-.39.87-1.02.94-2.03.1-1.47,1.25-3.2,2.71-4.83.59.18,1.08.25,1.08.25,0,0-.89,4.75-.34,4.16.55-.59,3.72-5.08,3.72-5.08.43,3.92,1.17,4.73,1.41,4.28.24-.45,1.5-4.83,1.99-6.85.49-2.02,1.95-3.48,1.95-3.48.12-.11.24-.23.36-.34,7.93-7.44,15.34-17.84,17.75-21.58.23-.49.45-.98.67-1.48.5-1.15.96-2.32,1.37-3.5.33-.36.56-.68.66-.93.89-2.25,6.59-14.38,6.71-15.84,3.9-.76,8.65-1.82,9.4-2.03,1.19-.34.47-3.17-2.59-5Z"/>
    </g>
  </g>
  <g id="txt">
    <g>
      <g>
        <polyline class="cls-2" points="427.6 127.73 429.07 134.96 432.72 127.73"/>
        <polygon class="cls-2" points="431.69 129.81 432.75 127.73 432.72 127.73 429.07 134.96 431.69 129.81"/>
        <polygon class="cls-2" points="427.59 127.73 428.3 131.18 429.07 134.96 427.6 127.73 427.59 127.73"/>
      </g>
      <g>
        <path class="cls-3" d="m280.57,127.92h-19.52l-1.44,9.05h18.08l-.92,5.81h-18.08l-1.5,9.47h19.9l-.97,6.11h-26.02l5.8-36.54h25.64l-.97,6.1Z"/>
        <path class="cls-3" d="m306.79,137.34l-4.52,2.35c-1.1-1.71-2.82-2.56-4.82-2.56-4.69,0-9.22,4.84-9.22,10,0,3.63,2.42,6.35,5.85,6.35,2.47,0,4.76-1.31,6.38-3.13l4.13,3.1c-2.84,3.41-6.83,5.43-10.86,5.43-6.44,0-11.04-5.05-11.04-11.68,0-8.38,7.1-15.46,14.58-15.46,4.33,0,7.72,2.32,9.53,5.6Z"/>
        <path class="cls-3" d="m336.57,143.48c0,8.35-7.26,15.4-14.95,15.4-6.65,0-11.41-5.08-11.41-11.74,0-8.35,7.26-15.4,14.95-15.4,6.65,0,11.41,5.08,11.41,11.74Zm-20.82,3.64c0,3.64,2.45,6.36,5.92,6.36,4.79,0,9.28-4.9,9.28-9.99,0-3.64-2.45-6.36-5.92-6.36-4.79,0-9.28,4.9-9.28,9.99Z"/>
        <path class="cls-3" d="m346.31,158.35h-5.72l5.8-36.54h5.72l-5.8,36.54Z"/>
        <path class="cls-3" d="m380.12,143.48c0,8.35-7.26,15.4-14.95,15.4-6.65,0-11.41-5.08-11.41-11.74,0-8.35,7.26-15.4,14.95-15.4,6.65,0,11.41,5.08,11.41,11.74Zm-20.82,3.64c0,3.64,2.45,6.36,5.92,6.36,4.79,0,9.28-4.9,9.28-9.99,0-3.64-2.45-6.36-5.92-6.36-4.79,0-9.28,4.9-9.28,9.99Z"/>
        <path class="cls-3" d="m405.77,135.84l.58-3.58h5.85l-3.87,24.36c-1.42,8.95-7.22,12.56-13.98,12.52-4.3-.03-8.33-1.48-11.64-3.9l2.04-3.9c2.59,1.95,5.64,2.94,8.46,2.97,4.74.03,8.38-2.81,9.44-8.18l.3-1.57c-2.43,2.8-5.62,4.3-8.81,4.3-5.82,0-9.33-4.87-9.33-11.19,0-8.28,5.56-15.96,12.79-15.96,3.49,0,6.29,1.66,8.17,4.11Zm-15.29,10.78c0,3.91,2.53,7.16,6.08,7.16,2.81,0,5.56-2.14,7.23-4.85l1.35-8.42c-1.23-2.07-3.37-3.39-5.97-3.39-4.47,0-8.68,4.54-8.68,9.49Z"/>
        <path class="cls-3" d="m427.62,161.1c-3.31,6.34-6.75,7.94-10.26,7.96-2.38.03-4.48-.77-6.24-1.55l1.93-4.02c.96.45,2.59,1.2,4.17,1.13,2.04-.07,3.88-1.14,5.82-4.73l.13-.73-6.09-26.91h5.91l3.88,18.99,9.65-18.98h6.04l-14.94,28.84Z"/>
      </g>
      <g>
        <path class="cls-3" d="m168.9,121.82c11.42,0,15.95,4.71,14.28,14.2-1.54,8.71-7.11,12.41-18.15,12.41h-5.42l-1.75,9.92h-11.36l6.44-36.54h15.96Zm-6.35,9.76l-1.44,8.15h4.54c3.46,0,5.26-1.24,5.75-4.04.5-2.81-.78-4.11-4.35-4.11h-4.5Z"/>
        <path class="cls-3" d="m214.84,132.26l-4.6,26.1h-10.55l.66-2.75c-2.47,2.22-5.32,3.27-8,3.27-6.26,0-9.45-4.6-9.45-10.8,0-8.42,4.98-16.35,12.82-16.35,3.39,0,5.98,1.63,7.68,3.85l.8-3.33h10.64Zm-22.13,13.88c0,2.15,1.54,3.77,3.71,3.77,1.69,0,3.35-.99,4.36-2.44l.76-4.32c-.5-1.45-1.8-2.44-3.5-2.44-2.77,0-5.33,2.63-5.33,5.42Z"/>
        <path class="cls-3" d="m246.61,140.43l-3.16,17.93h-10.62l2.73-15.49c.34-1.95-.3-2.59-1.61-2.59-2.01,0-3.8.78-5.26,1.76l-3.16,16.31h-10.62l4.6-26.1h10.37l-.45,2.33c3-2,6.36-2.85,8.94-2.85,5.29,0,9.23,2.97,8.22,8.69Z"/>
      </g>
      <g>
        <path class="cls-3" d="m242.71,165.36v3.5h-2.22v-.63c-.47.49-1.03.74-1.69.74-1.01,0-1.73-.67-1.73-1.68s.74-1.58,1.94-1.58h1.48v-.13c0-.37-.26-.55-.78-.55-.47.01-.96.15-1.49.42l-.62-1.4c.9-.47,1.81-.7,2.73-.71,1.3,0,2.39.53,2.39,2.02Zm-2.22,1.17h-.59c-.42,0-.62.18-.62.54s.23.6.55.6c.25,0,.48-.06.67-.19v-.95Z"/>
        <path class="cls-3" d="m255.11,168.86h-2.38l-.56-2.13-.55,2.13h-2.39l-1.54-5.41h2.21l.64,3.04.79-3.04h1.7l.78,3.04.63-3.04h2.22l-1.55,5.41Z"/>
        <path class="cls-3" d="m263.97,166.15c0,.78-.31,1.44-.93,1.99-.61.55-1.36.82-2.22.82s-1.61-.27-2.23-.82c-.61-.55-.92-1.21-.92-1.99s.31-1.44.92-1.99c.62-.55,1.37-.82,2.23-.82,1.7-.03,3.2,1.29,3.15,2.81Zm-3.84.67c.55.62,1.68.14,1.63-.67,0-.53-.43-.95-.95-.95-.82-.04-1.3,1.08-.68,1.62Z"/>
        <path class="cls-3" d="m269.58,165.11c-.65,0-1.23.3-1.72.92v2.83h-2.22v-5.41h2.22v.99c.52-.7,1.14-1.09,1.72-1.09v1.77Z"/>
        <path class="cls-3" d="m273.3,165.19l1.28-1.74h2.63l-1.72,2.21,1.83,3.2h-2.42l-.95-1.61-.65.73v.89h-2.22v-5.9h2.22v2.24Z"/>
        <path class="cls-3" d="m283.14,164.15c.53.53.79,1.2.79,2v.52h-3.62c.02.48.48.72,1,.72.43,0,.77-.12,1.04-.37l1.15,1.02c-.67.62-1.46.93-2.39.93-.81,0-1.5-.27-2.08-.82-.58-.55-.86-1.21-.86-1.99s.28-1.44.84-1.99c.57-.55,1.25-.82,2.05-.82.88,0,1.58.27,2.09.81Zm-2.81,1.5h1.53c0-.44-.3-.77-.77-.77-.43,0-.77.34-.77.77Z"/>
        <path class="cls-3" d="m289.49,165.11c-.65,0-1.23.3-1.72.92v2.83h-2.22v-5.41h2.22v.99c.51-.7,1.14-1.09,1.72-1.09v1.77Z"/>
        <path class="cls-3" d="m295.69,163.95l-.72,1.33c-.62-.33-1.19-.5-1.73-.5-.19,0-.28.06-.28.2,0,.1.07.14.63.28.73.18,1.13.35,1.57.62.44.27.63.67.63,1.22,0,1.18-.86,1.85-2.35,1.85-1.06,0-1.99-.26-2.79-.78l.77-1.27c.66.4,1.32.6,2,.6.21,0,.32-.06.32-.19,0-.08-.03-.13-.09-.15-.06-.03-.24-.09-.55-.16l-.71-.2c-.34-.12-.85-.35-1.08-.56-.23-.23-.42-.6-.42-1.06,0-1.25,1.04-1.84,2.37-1.84.93,0,1.74.2,2.44.62Z"/>
        <path class="cls-3" d="m299.34,163.42l-1.52,2.19-.62-.27.63-1.55c-.38-.15-.65-.49-.65-.88,0-.55.51-.99,1.16-.99s1.17.43,1.17.99c0,.18-.06.36-.17.51Z"/>
        <path class="cls-3" d="m310.13,164.62l-1.7.92c-.19-.23-.43-.34-.71-.34-.5,0-.93.42-.93.95s.42.95.93.95c.28,0,.53-.11.71-.34l1.7.92c-.56.78-1.48,1.28-2.52,1.28-.82,0-1.53-.27-2.12-.82-.58-.55-.88-1.21-.88-1.99s.3-1.44.88-1.99c.59-.55,1.3-.82,2.12-.82,1.04,0,1.96.5,2.52,1.28Z"/>
        <path class="cls-3" d="m317.88,166.15c0,.78-.31,1.44-.93,1.99-.61.55-1.36.82-2.22.82s-1.61-.27-2.23-.82c-.61-.55-.92-1.21-.92-1.99s.31-1.44.92-1.99c.62-.55,1.37-.82,2.23-.82,1.7-.03,3.2,1.29,3.15,2.81Zm-3.84.67c.55.62,1.68.14,1.63-.67,0-.53-.43-.95-.95-.95-.82-.04-1.3,1.08-.68,1.62Z"/>
        <path class="cls-3" d="m325.69,166.15c0,.78-.31,1.44-.93,1.99-.61.55-1.36.82-2.22.82s-1.61-.27-2.23-.82c-.61-.55-.92-1.21-.92-1.99s.31-1.44.92-1.99c.62-.55,1.37-.82,2.23-.82,1.7-.03,3.2,1.29,3.15,2.81Zm-3.85.67c.55.62,1.68.14,1.63-.67,0-.53-.43-.95-.95-.95-.82-.04-1.3,1.08-.68,1.62Z"/>
        <path class="cls-3" d="m332.97,164.14c.41.53.61,1.2.61,2.01s-.21,1.48-.61,2.01-.96.8-1.69.8c-.63,0-1.18-.25-1.65-.74v2.74h-2.22v-7.52h2.22v.63c.47-.49,1.03-.74,1.66-.74.71,0,1.27.27,1.68.8Zm-3.34,1.57v.89c.16.31.48.51.83.51.52,0,.93-.43.93-.95s-.44-.95-.93-.95c-.35,0-.67.19-.83.51Z"/>
        <path class="cls-3" d="m340.19,164.15c.52.53.79,1.2.79,2v.52h-3.63c.02.48.48.72,1,.72.43,0,.77-.12,1.04-.37l1.15,1.02c-.67.62-1.46.93-2.39.93-.81,0-1.5-.27-2.08-.82-.58-.55-.86-1.21-.86-1.99s.28-1.44.84-1.99c.57-.55,1.25-.82,2.05-.82.88,0,1.58.27,2.09.81Zm-2.82,1.5h1.53c0-.44-.29-.77-.77-.77-.43,0-.77.34-.77.77Z"/>
        <path class="cls-3" d="m346.53,165.11c-.65,0-1.23.3-1.72.92v2.83h-2.22v-5.41h2.22v.99c.51-.7,1.14-1.09,1.72-1.09v1.77Z"/>
        <path class="cls-3" d="m353.28,165.36v3.5h-2.22v-.63c-.47.49-1.03.74-1.69.74-1.01,0-1.73-.67-1.73-1.68s.75-1.58,1.94-1.58h1.48v-.13c0-.37-.26-.55-.78-.55-.47.01-.96.15-1.49.42l-.62-1.4c.9-.47,1.81-.7,2.73-.71,1.3,0,2.39.53,2.39,2.02Zm-2.22,1.17h-.59c-.42,0-.62.18-.62.54s.23.6.55.6c.25,0,.48-.06.67-.19v-.95Z"/>
        <path class="cls-3" d="m357.65,164.3h1.24v1.67h-1.24v.73c0,.34.23.5.57.5.23,0,.47-.06.71-.2l.27,1.48c-.6.31-1.25.49-1.86.5-1.11.01-1.92-.64-1.92-1.89v-1.11h-.65v-1.67h.65v-1.34h2.22v1.34Z"/>
        <path class="cls-3" d="m362.95,162.24c.45.38.45.97,0,1.35-.45.38-1.18.38-1.63,0-.45-.38-.45-.97,0-1.35s1.18-.38,1.63,0Zm.29,6.62h-2.22v-4.63h2.22v4.63Z"/>
        <path class="cls-3" d="m369.46,168.86h-2.76l-1.97-5.41h2.37l.99,3.17.99-3.17h2.36l-1.97,5.41Z"/>
        <path class="cls-3" d="m377.25,164.15c.52.53.79,1.2.79,2v.52h-3.62c.02.48.48.72,1,.72.43,0,.77-.12,1.04-.37l1.15,1.02c-.67.62-1.46.93-2.39.93-.81,0-1.5-.27-2.08-.82-.58-.55-.86-1.21-.86-1.99s.28-1.44.84-1.99c.57-.55,1.25-.82,2.05-.82.88,0,1.58.27,2.09.81Zm-2.82,1.5h1.53c0-.44-.3-.77-.77-.77-.43,0-.77.34-.77.77Z"/>
      </g>
    </g>
  </g>
</svg>