<?xml version="1.0" encoding="UTF-8"?>
<svg id="Layer_1" data-name="Layer 1" xmlns="http://www.w3.org/2000/svg" viewBox="0 0 432 432">
  <defs>
    <style>
      .cls-1 {
        fill: #2a173c;
      }

      .cls-2 {
        fill: #01bce3;
      }

      .cls-3 {
        fill: none;
      }
    </style>
  </defs>
  <g>
    <path class="cls-3" d="m238.96,338.97l-3.34.31h-.03s.11,2.54.11,2.54c.98-1,2.06-1.97,3.25-2.85Z"/>
    <path class="cls-3" d="m242.05,332.75c-.22.73-.44,1.42-.68,2.08l-1.18,3.28c2.5-1.65,5.39-2.96,8.68-3.7,2.41-.54,5.43-1.51,7.57-2.37-.36-3.46-1.2-5.66-2.19-7.87-9.97,1.33-11.06,4.87-12.21,8.58Z"/>
    <path class="cls-2" d="m44.36,230c12.3-4.6,26.62-7.49,35.18-9.22,2.28-.46,4.86-.98,5.49-1.17,2.27-.74,17.84-7.26,27.16-11.3,1.06-2.91,4.07-5.09,6.33-6.72,1.9-1.37,5.74-3.98,10.22-6.02,1.42-.65,3.86-1.85,6.96-3.37,10.82-5.33,28.78-14.18,40.98-17.96,3.3-1.83,18.76-10.38,35.31-18.77,14.15-7.17,36.76-13.16,40.73-13.54,1.67-.36,6.97-3.23,10.49-5.13,4.03-2.18,8.6-4.65,12.75-6.44l.45-.19.65-.28,3.38-1.4.12.08c.15-.06.3-.12.45-.17,10.75-14.32,25.84-31.49,37.31-38.47,7.79-4.74,16.44-7.24,25.01-7.24,5.33,0,9.31.96,11.15,1.51.99.11,2.11.33,3.4.64-33.87-34.33-80.94-55.62-132.98-55.62-103.17,0-186.81,83.64-186.81,186.81,0,5.49.25,10.93.72,16.3,1.03-.47,2.1-.94,3.26-1.4.75-.3,1.5-.61,2.3-.91Z"/>
    <path class="cls-2" d="m229.14,363.99c-1.52-3.85-1.09-9.32,1.11-14.27,1.15-2.58,2.98-5.37,5.46-7.9l-.11-2.54-.37.03h-.31c-3.58,0-7.99-2.58-8.63-9.83-.6-6.71,2.05-14.05,8.03-18.59l-.54-11.9c-.67-.76-1.2-1.71-1.47-2.92h0c-.07-.28-.22-.83-.4-1.6-.85.11-1.69.18-2.29.18-2.16,0-3.66-.89-4.52-1.62h0s-.08-.07-.08-.07c-2.96-2.42-5.81-5.25-8.28-8.22-1.02.16-1.89.24-2.69.24-.13,0-.25,0-.37,0-1.55-.05-3.75-.48-8.6-1.46-4.13-.83-9.24-1.86-14.73-2.74-2.57-.13-5.25-.41-7.97-.86-.81-.12-1.65-.27-2.49-.42l-.66-.12c-2.48-.21-4.75-.31-6.74-.31-1.34,0-2.59.05-3.72.14-10.73.89-19.3,2.07-25.47,3.51-.76.18-1.45.26-2.12.26-2.29,0-4.3-1.01-5.58-2.64-1.94.14-3.69.24-4.9.24-1.49,0-3.08-.13-4.66-1.06-.38-.23-.75-.48-1.09-.74-3.02.33-7.43.75-10.46.75-7.03,0-9.04-3.39-9.5-6.23-.07-.46-.11-.95-.1-1.46-2.98.36-5.64.6-8.08.71-1.77.08-3.72.13-5.78.13-4.71,0-10.24-.23-15.17-.62-6.04-.48-8.37-.91-9.81-1.6-1.62.35-4.08.97-6.66,1.62-4.43,1.12-8.4,2.09-11.79,2.8,24.67,74.31,94.73,127.91,177.32,127.91,4.56,0,9.06-.22,13.54-.54l-1.44-31.98-3.3-1.41c-1.44-.62-3.41-1.96-4.56-4.9Zm8.75,37.98v-.05s0,.05,0,.05Z"/>
    <path class="cls-2" d="m370.08,158.64c-2.8,6.23-5.22,11.61-6.03,13.67-.48,1.23-1.24,2.46-2.35,3.8-1.16,3.24-2.47,6.54-3.89,9.83-.61,1.41-1.28,2.9-2.11,4.67l-.19.42-.25.39c-8.56,13.3-31.06,44.36-54.88,66.7l-.4.38c-.19.18-.37.35-.56.53-.46.5-3.16,3.55-4.09,7.34-.75,3.08-5.19,19.62-6.64,22.35-1.29,2.43-3.76,3.93-6.44,3.93-.57,0-1.1-.07-1.61-.18l3.64,14.32c5.53,3.25,9.95,7.01,11.28,9.39.07.13.17.28.27.44,1.64,2.62,5.47,8.77,1.28,19.4l-.88,2.24c.4.27.81.56,1.25.88l.12.09.06.05c1.76,1.35,5.03,3.85,7.06,8.11,2.47,5.16,2.35,11.07-.36,17.55l-3.31,7.93,3.12,12.28c63.53-29.82,107.54-94.34,107.54-169.17,0-32.41-8.26-62.9-22.78-89.46-1.83.38-3.68.76-5.51,1.13-1.84,5.1-5.74,14.08-13.34,30.98Z"/>
  </g>
  <path class="cls-1" d="m399.1,100.48c-5.17-3.11-15.81-4.47-24.22-5.07-.6-.14-1.27-.19-2.01-.13,0,0,0,0,0,0-.56-.03-1.11-.06-1.64-.09-4.79-.66-14.65-4.3-17.7-4.3,0,0-14.5-5.43-31.35,4.82-10.34,6.29-24.52,22.39-34.58,35.64-.44,1.19-.75,3.17.58,5.54,2.63,4.08,6.46,9.34,9.91,13.74,6.9,8.8,9.53,20.45,9.53,20.45-20.06-23.42-45.58-23.38-51.59-23.01-.98.36-1.83.58-2.48.6-1.77.06-24.05,5.68-38.15,12.83-18.67,9.46-35.71,19-35.71,19-15.06,4.5-41.08,18.17-47.8,21.23-6.71,3.06-13.14,8.25-12.91,8.79.23.55,4.17-.07,3.88.49-.29.57-32.1,13.96-35.4,15.03-3.31,1.07-24.12,4.22-40.37,10.3-.76.28-1.46.57-2.17.86-14.52,5.88-19.14,12.36-17.66,11.45.56-.35,2.55-.99,5.02-1.66,4.38-1.2,10.27-2.51,12.42-2.5,3.35.02,28.66-3.58,27.85-2.99-.8.59-2.52,1.29-24.24,5.04-13.99,2.42-20.77,8.29-23.84,12.18-1.69,2.14-2.27,3.69-2.27,3.69,0,0,5.82,3.44,11.79,3.04,2.49-.16,10.05-1.33,18.01-2.64,2,.14,4.02.27,6.12.38-16.98,4.6-18.22,6.07-18.22,6.07,5.92-.2,21.85-4.94,26.5-5.71.71.03,1.46.05,2.17.07.15.18.37.41.71.69.77.62,16.26,2.01,27.53,1.48,3.07-.14,6.21-.48,9.21-.88,8.03-1.06,14.99-2.59,16.53-2.22,2.11.51,13.36,1.68,13.36,1.68-2.88.68-5.39,1.3-7.64,1.86-13.71,3.42-16.45,4.76-16.25,6,.23,1.44,15.76-.57,15.76-.57,0,0,.95,1.38,2.04,2.02,1.09.64,20.84-1.66,17.47-.87-3.37.79-7.97,3.95-5.19,3.3,2.78-.65,10.44-2.33,26.44-3.66,3.59-.3,7.68-.17,11.9.2,1.11.19,2.24.41,3.32.56,2.68.44,5.21.7,7.61.8,10.9,1.72,20.63,4.11,22.85,4.18,1.3.04,3.34-.41,5.6-1.01,4.51,6.44,9.84,10.51,10,10.66.07.07,1.7-.08,4.1-.48,1.55.87,2.99,1.76,4.36,2.67.48,2.69.98,4.4,1,4.51.02.1.87.54,2.2,1.01.69,2.29,2.24,4.65,4.96,7.05,2.13,1.89,3.81,4.68,5.53,6.55-1.72,2.17-2.5,3.66-6.79,4.43-14.04,2.51-13.02,19.24-9.82,18.94,1.96-5.44,2.33-14.38,23.52-15.55,1.84,4.91,4.9,8.44,4.9,18.92-2.48,2.2-9.9,4.41-13.04,5.12-6.91,1.55-11.78,6.62-13.92,11.45-2.18,4.89-1.58,9.54-.09,10.18,2-2.37,4.55-9.95,14.76-13.95,6.8-2.66,18.12-3.58,28.97-.84,12.8,3.24,14.65,8.1,18.02,14.48,4.51-10.8-1.71-15.47-4.63-17.71-5.07-3.7-5.58-2.34-13.86-6.9-4.85-2.67-9.25-13.72-14.09-20.91.44,0,.87,0,1.32.01,13.2.27,19.54,7.79,23.94,16.71,3.3-8.38-.05-12.06-1.16-14.05-1.11-1.99-10.8-9.38-19.97-11.61-5.98-1.46-8.49-5.27-15.7-11.62-.05-.31-.08-.6-.11-.89,1.55-1.17,2.64-3.09,2.84-6.15.29-4.45,3.78-9.69,8.23-14.65,1.78.53,3.28.76,3.28.76,0,0-2.71,14.41-1.04,12.62,1.68-1.79,11.27-15.4,11.27-15.4,1.3,11.88,3.55,14.35,4.28,12.98.73-1.37,4.54-14.63,6.04-20.77,1.5-6.14,5.91-10.56,5.91-10.56.36-.34.73-.68,1.09-1.03,24.04-22.55,46.51-54.08,53.81-65.43.69-1.49,1.38-2.98,2.03-4.5,1.51-3.48,2.9-7.03,4.15-10.62,1.01-1.09,1.71-2.05,2.01-2.81,2.68-6.81,19.99-43.59,20.36-48.03,11.83-2.29,26.24-5.51,28.49-6.15,3.61-1.03,1.44-9.6-7.84-15.17Z"/>
</svg>