<?xml version="1.0" encoding="UTF-8"?>
<svg xmlns="http://www.w3.org/2000/svg" viewBox="0 0 460.8 292.13">
  <defs>
    <style>
      .cls-1 {
        fill: #06bde3;
      }

      .cls-2 {
        fill: none;
      }

      .cls-3 {
        fill: #2b163d;
      }
    </style>
  </defs>
  <g id="details">
    <g>
      <g>
        <path class="cls-2" d="m243.57,199.09l-1.97.18h-.01s.07,1.5.07,1.5c.58-.59,1.22-1.16,1.92-1.68Z"/>
        <path class="cls-2" d="m245.4,195.43c-.13.43-.26.84-.4,1.22l-.7,1.94c1.47-.97,3.18-1.75,5.12-2.18,1.42-.32,3.2-.89,4.47-1.4-.21-2.04-.71-3.34-1.29-4.64-5.88.79-6.52,2.87-7.2,5.06Z"/>
        <path class="cls-1" d="m128.77,134.81c7.25-2.71,15.7-4.42,20.75-5.44,1.34-.27,2.87-.58,3.24-.69,1.34-.44,10.52-4.28,16.02-6.67.62-1.72,2.4-3.01,3.73-3.97,1.12-.81,3.39-2.35,6.03-3.55.84-.38,2.28-1.09,4.1-1.99,6.38-3.14,16.98-8.37,24.18-10.6,1.94-1.08,11.07-6.12,20.83-11.07,8.35-4.23,21.68-7.76,24.03-7.99.99-.21,4.11-1.9,6.19-3.03,2.38-1.29,5.07-2.75,7.52-3.8l.26-.11.38-.17,2-.83.07.05c.09-.03.18-.07.26-.1,6.34-8.45,15.25-18.58,22.01-22.69,4.6-2.8,9.7-4.27,14.76-4.27,3.15,0,5.49.57,6.58.89.58.06,1.25.19,2.01.38-19.98-20.25-47.75-32.81-78.45-32.81-60.87,0-110.21,49.34-110.21,110.21,0,3.24.15,6.45.42,9.62.61-.28,1.24-.55,1.92-.83.44-.18.88-.36,1.36-.53Z"/>
        <path class="cls-1" d="m237.78,213.85c-.89-2.27-.64-5.5.66-8.42.68-1.52,1.76-3.17,3.22-4.66l-.07-1.5-.22.02h-.18c-2.11,0-4.71-1.52-5.09-5.8-.35-3.96,1.21-8.29,4.74-10.97l-.32-7.02c-.39-.45-.71-1.01-.87-1.72h0c-.04-.17-.13-.49-.24-.94-.5.06-1,.11-1.35.11-1.27,0-2.16-.53-2.67-.96h0s-.05-.04-.05-.04c-1.75-1.43-3.43-3.1-4.89-4.85-.6.1-1.11.14-1.59.14-.07,0-.15,0-.22,0-.91-.03-2.21-.28-5.07-.86-2.44-.49-5.45-1.1-8.69-1.62-1.52-.07-3.1-.24-4.7-.51-.48-.07-.97-.16-1.47-.25l-.39-.07c-1.46-.12-2.8-.18-3.98-.18-.79,0-1.53.03-2.2.08-6.33.53-11.39,1.22-15.02,2.07-.45.1-.86.16-1.25.16-1.35,0-2.54-.6-3.29-1.56-1.15.08-2.17.14-2.89.14-.88,0-1.82-.08-2.75-.62-.23-.13-.44-.28-.64-.43-1.78.2-4.39.44-6.17.44-4.15,0-5.34-2-5.6-3.67-.04-.27-.07-.56-.06-.86-1.76.21-3.33.35-4.77.42-1.05.05-2.19.07-3.41.07-2.78,0-6.04-.13-8.95-.37-3.56-.29-4.94-.53-5.79-.94-.95.21-2.41.57-3.93.96-2.61.66-4.95,1.24-6.95,1.65,14.55,43.84,55.89,75.46,104.61,75.46,2.69,0,5.35-.13,7.99-.32l-.85-18.86-1.95-.83c-.85-.36-2.01-1.16-2.69-2.89Zm5.16,22.4v-.03s0,.03,0,.03Z"/>
        <path class="cls-1" d="m320.93,92.71c-1.65,3.68-3.08,6.85-3.56,8.07-.29.72-.73,1.45-1.39,2.24-.69,1.91-1.46,3.86-2.29,5.8-.36.83-.76,1.71-1.24,2.76l-.11.25-.15.23c-5.05,7.85-18.32,26.17-32.37,39.35l-.24.22c-.11.1-.22.21-.33.31-.27.3-1.86,2.09-2.41,4.33-.44,1.82-3.06,11.57-3.92,13.18-.76,1.43-2.22,2.32-3.8,2.32-.34,0-.65-.04-.95-.1l2.14,8.45c3.26,1.92,5.87,4.14,6.65,5.54.04.08.1.16.16.26.97,1.55,3.23,5.17.76,11.45l-.52,1.32c.23.16.48.33.74.52l.07.05.04.03c1.04.79,2.97,2.27,4.17,4.79,1.46,3.05,1.38,6.53-.21,10.35l-1.95,4.68,1.84,7.25c37.48-17.59,63.44-55.66,63.44-99.8,0-19.12-4.87-37.11-13.44-52.78-1.08.22-2.17.45-3.25.66-1.09,3.01-3.39,8.31-7.87,18.28Z"/>
      </g>
      <path class="cls-3" d="m338.05,58.4c-3.05-1.83-9.33-2.64-14.29-2.99-.36-.08-.75-.11-1.19-.08,0,0,0,0,0,0-.33-.02-.65-.04-.97-.05-2.83-.39-8.64-2.53-10.44-2.54,0,0-8.55-3.2-18.49,2.84-6.1,3.71-14.46,13.21-20.4,21.03-.26.7-.44,1.87.34,3.27,1.55,2.4,3.81,5.51,5.84,8.11,4.07,5.19,5.62,12.07,5.62,12.07-11.83-13.81-26.89-13.79-30.44-13.57-.58.21-1.08.34-1.46.36-1.05.03-14.19,3.35-22.51,7.57-11.01,5.58-21.07,11.21-21.07,11.21-8.88,2.66-24.24,10.72-28.2,12.53-3.96,1.81-7.75,4.87-7.61,5.19.14.32,2.46-.04,2.29.29-.17.33-18.94,8.24-20.89,8.87-1.95.63-14.23,2.49-23.82,6.07-.45.17-.86.34-1.28.5-8.57,3.47-11.29,7.29-10.42,6.75.33-.2,1.51-.58,2.96-.98,2.58-.71,6.06-1.48,7.32-1.47,1.98.01,16.91-2.11,16.43-1.76-.47.35-1.49.76-14.3,2.97-8.25,1.43-12.25,4.89-14.06,7.18-1,1.26-1.34,2.17-1.34,2.17,0,0,3.43,2.03,6.96,1.8,1.47-.1,5.93-.79,10.62-1.56,1.18.08,2.37.16,3.61.22-10.02,2.71-10.75,3.58-10.75,3.58,3.49-.12,12.89-2.91,15.63-3.37.42.02.86.03,1.28.04.09.11.22.24.42.41.46.37,9.59,1.18,16.24.87,1.81-.08,3.66-.28,5.43-.52,4.73-.63,8.85-1.53,9.75-1.31,1.24.3,7.88.99,7.88.99-1.7.4-3.18.77-4.51,1.1-8.09,2.02-9.71,2.81-9.59,3.54.14.85,9.3-.34,9.3-.34,0,0,.56.81,1.2,1.19.64.38,12.3-.98,10.31-.51-1.99.46-4.7,2.33-3.06,1.95,1.64-.38,6.16-1.37,15.6-2.16,2.12-.18,4.53-.1,7.02.12.65.11,1.32.24,1.96.33,1.58.26,3.08.41,4.49.47,6.43,1.01,12.17,2.42,13.48,2.46.76.02,1.97-.24,3.31-.6,2.66,3.8,5.81,6.2,5.9,6.29.04.04,1-.05,2.42-.28.91.51,1.77,1.04,2.57,1.57.28,1.59.58,2.6.59,2.66,0,.06.52.32,1.3.6.41,1.35,1.32,2.74,2.93,4.16,1.26,1.11,2.25,2.76,3.26,3.86-1.01,1.28-1.48,2.16-4.01,2.61-8.28,1.48-7.68,11.35-5.79,11.18,1.16-3.21,1.37-8.48,13.87-9.17,1.09,2.9,2.89,4.98,2.89,11.16-1.46,1.3-5.84,2.6-7.7,3.02-4.08.92-6.95,3.91-8.21,6.76-1.28,2.89-.93,5.63-.05,6,1.18-1.4,2.69-5.87,8.71-8.23,4.01-1.57,10.69-2.11,17.09-.5,7.55,1.91,8.65,4.78,10.63,8.54,2.66-6.37-1.01-9.13-2.73-10.45-2.99-2.18-3.29-1.38-8.17-4.07-2.86-1.57-5.46-8.1-8.31-12.34.26,0,.51,0,.78,0,7.79.16,11.53,4.6,14.13,9.86,1.95-4.95-.03-7.12-.68-8.29-.65-1.17-6.37-5.53-11.78-6.85-3.53-.86-5.01-3.11-9.26-6.86-.03-.18-.05-.35-.06-.52.91-.69,1.56-1.83,1.68-3.63.17-2.63,2.23-5.72,4.85-8.64,1.05.31,1.94.45,1.94.45,0,0-1.6,8.5-.61,7.44.99-1.05,6.65-9.08,6.65-9.08.77,7.01,2.09,8.46,2.52,7.66.43-.81,2.68-8.63,3.56-12.25.88-3.62,3.49-6.23,3.49-6.23.21-.2.43-.4.64-.6,14.19-13.31,27.44-31.91,31.75-38.6.41-.88.81-1.76,1.2-2.65.89-2.05,1.71-4.15,2.45-6.26.59-.64,1.01-1.21,1.18-1.66,1.58-4.02,11.79-25.71,12.01-28.34,6.98-1.35,15.48-3.25,16.81-3.63,2.13-.61.85-5.66-4.62-8.95Z"/>
    </g>
  </g>
  <g id="Layer_12_copy" data-name="Layer 12 copy">
    <g>
      <polyline class="cls-2" points="333.84 246.92 334.93 252.26 337.62 246.92"/>
      <polygon class="cls-2" points="336.86 248.45 337.64 246.92 337.62 246.92 334.93 252.26 336.86 248.45"/>
      <polygon class="cls-2" points="333.84 246.92 334.36 249.47 334.93 252.26 333.84 246.92 333.84 246.92"/>
    </g>
    <g>
      <path class="cls-3" d="m225.25,247.06h-14.42l-1.06,6.68h13.36l-.68,4.29h-13.36l-1.11,6.99h14.69l-.72,4.51h-19.22l4.28-26.98h18.94l-.72,4.51Z"/>
      <path class="cls-3" d="m244.61,254.02l-3.34,1.74c-.81-1.26-2.08-1.89-3.56-1.89-3.47,0-6.81,3.58-6.81,7.39,0,2.68,1.79,4.69,4.32,4.69,1.83,0,3.51-.97,4.71-2.31l3.05,2.29c-2.09,2.52-5.04,4.01-8.02,4.01-4.76,0-8.15-3.73-8.15-8.63,0-6.19,5.24-11.42,10.77-11.42,3.19,0,5.7,1.71,7.03,4.14Z"/>
      <path class="cls-3" d="m266.61,258.55c0,6.17-5.36,11.37-11.04,11.37-4.91,0-8.43-3.75-8.43-8.67,0-6.17,5.36-11.37,11.04-11.37,4.91,0,8.43,3.75,8.43,8.67Zm-15.38,2.69c0,2.69,1.81,4.7,4.37,4.7,3.53,0,6.86-3.62,6.86-7.38,0-2.68-1.81-4.7-4.37-4.7-3.53,0-6.86,3.62-6.86,7.38Z"/>
      <path class="cls-3" d="m273.8,269.53h-4.23l4.28-26.98h4.23l-4.28,26.98Z"/>
      <path class="cls-3" d="m298.77,258.55c0,6.17-5.36,11.37-11.04,11.37-4.91,0-8.43-3.75-8.43-8.67,0-6.17,5.36-11.37,11.04-11.37,4.91,0,8.43,3.75,8.43,8.67Zm-15.38,2.69c0,2.69,1.81,4.7,4.37,4.7,3.53,0,6.86-3.62,6.86-7.38,0-2.68-1.81-4.7-4.37-4.7-3.53,0-6.86,3.62-6.86,7.38Z"/>
      <path class="cls-3" d="m317.71,252.91l.42-2.64h4.32l-2.86,17.99c-1.05,6.61-5.33,9.27-10.32,9.25-3.18-.02-6.15-1.09-8.6-2.88l1.5-2.88c1.91,1.44,4.16,2.17,6.25,2.2,3.5.02,6.19-2.08,6.97-6.04l.22-1.16c-1.79,2.07-4.15,3.18-6.5,3.18-4.3,0-6.89-3.59-6.89-8.26,0-6.11,4.11-11.78,9.44-11.78,2.58,0,4.65,1.22,6.03,3.03Zm-11.29,7.96c0,2.88,1.87,5.29,4.49,5.29,2.08,0,4.1-1.58,5.34-3.58l1-6.22c-.91-1.53-2.49-2.5-4.41-2.5-3.3,0-6.41,3.35-6.41,7.01Z"/>
      <path class="cls-3" d="m333.85,271.56c-2.44,4.68-4.98,5.86-7.57,5.88-1.75.02-3.31-.57-4.61-1.14l1.43-2.97c.71.33,1.91.89,3.08.83,1.51-.05,2.87-.84,4.3-3.49l.1-.54-4.49-19.87h4.36l2.86,14.02,7.13-14.02h4.46l-11.04,21.3Z"/>
    </g>
    <g>
      <path class="cls-3" d="m142.77,242.56c8.43,0,11.78,3.47,10.54,10.49-1.13,6.43-5.25,9.16-13.4,9.16h-4l-1.29,7.33h-8.39l4.76-26.98h11.79Zm-4.69,7.2l-1.06,6.02h3.35c2.55,0,3.88-.91,4.25-2.98.37-2.08-.57-3.04-3.21-3.04h-3.32Z"/>
      <path class="cls-3" d="m176.7,250.27l-3.4,19.27h-7.79l.49-2.03c-1.82,1.64-3.93,2.42-5.91,2.42-4.62,0-6.98-3.4-6.98-7.97,0-6.22,3.68-12.07,9.46-12.07,2.51,0,4.41,1.21,5.67,2.84l.59-2.46h7.86Zm-16.34,10.25c0,1.59,1.14,2.79,2.74,2.79,1.25,0,2.47-.73,3.22-1.8l.56-3.19c-.37-1.07-1.33-1.8-2.58-1.8-2.05,0-3.94,1.94-3.94,4.01Z"/>
      <path class="cls-3" d="m200.16,256.3l-2.33,13.24h-7.84l2.02-11.43c.25-1.44-.22-1.91-1.19-1.91-1.48,0-2.81.58-3.88,1.3l-2.33,12.05h-7.84l3.4-19.27h7.66l-.33,1.72c2.21-1.48,4.69-2.1,6.6-2.1,3.9,0,6.82,2.19,6.07,6.42Z"/>
    </g>
  </g>
  <g id="Layer_6_copy_5" data-name="Layer 6 copy 5">
    <g>
      <path class="cls-3" d="m197.29,274.71v2.58h-1.64v-.46c-.35.36-.76.54-1.25.54-.74,0-1.28-.5-1.28-1.24s.55-1.17,1.43-1.17h1.09v-.1c0-.27-.19-.41-.57-.41-.35,0-.71.11-1.1.31l-.46-1.03c.66-.34,1.33-.52,2.01-.53.96,0,1.76.39,1.76,1.5Zm-1.64.86h-.44c-.31,0-.46.14-.46.4s.17.44.4.44c.19,0,.36-.05.49-.14v-.7Z"/>
      <path class="cls-3" d="m206.44,277.3h-1.75l-.41-1.58-.4,1.58h-1.76l-1.14-4h1.63l.47,2.25.58-2.25h1.25l.57,2.25.47-2.25h1.64l-1.15,4Z"/>
      <path class="cls-3" d="m212.99,275.3c0,.58-.23,1.06-.69,1.47-.45.41-1,.61-1.64.61s-1.19-.2-1.65-.61c-.45-.41-.68-.9-.68-1.47s.23-1.06.68-1.47c.46-.41,1.01-.61,1.65-.61,1.25-.02,2.36.95,2.33,2.08Zm-2.84.5c.4.46,1.24.1,1.21-.5,0-.39-.32-.7-.7-.7-.61-.03-.96.8-.5,1.2Z"/>
      <path class="cls-3" d="m217.13,274.53c-.48,0-.91.22-1.27.68v2.09h-1.64v-4h1.64v.73c.38-.52.84-.81,1.27-.81v1.31Z"/>
      <path class="cls-3" d="m219.88,274.59l.95-1.29h1.94l-1.27,1.63,1.35,2.37h-1.79l-.7-1.19-.48.54v.66h-1.64v-4.36h1.64v1.65Z"/>
      <path class="cls-3" d="m227.15,273.82c.39.39.58.89.58,1.48v.38h-2.68c.02.35.36.53.74.53.32,0,.57-.09.77-.27l.85.75c-.49.46-1.08.69-1.76.69-.6,0-1.11-.2-1.54-.61-.43-.41-.64-.9-.64-1.47s.21-1.06.62-1.47c.42-.41.92-.61,1.51-.61.65,0,1.16.2,1.54.6Zm-2.08,1.11h1.13c0-.33-.22-.57-.57-.57-.32,0-.57.25-.57.57Z"/>
      <path class="cls-3" d="m231.84,274.53c-.48,0-.91.22-1.27.68v2.09h-1.64v-4h1.64v.73c.38-.52.84-.81,1.27-.81v1.31Z"/>
      <path class="cls-3" d="m236.42,273.67l-.53.98c-.46-.25-.88-.37-1.28-.37-.14,0-.21.05-.21.15,0,.07.05.1.47.21.54.14.83.26,1.16.46.32.2.47.5.47.9,0,.87-.64,1.37-1.74,1.37-.78,0-1.47-.19-2.06-.58l.57-.94c.49.3.98.44,1.48.44.15,0,.23-.05.23-.14,0-.06-.02-.1-.06-.11-.04-.02-.18-.06-.4-.12l-.53-.15c-.25-.09-.63-.26-.8-.42-.17-.17-.31-.44-.31-.78,0-.92.77-1.36,1.75-1.36.69,0,1.29.15,1.8.46Z"/>
      <path class="cls-3" d="m239.11,273.28l-1.12,1.62-.46-.2.47-1.14c-.28-.11-.48-.36-.48-.65,0-.41.38-.73.86-.73s.87.32.87.73c0,.14-.04.26-.13.38Z"/>
      <path class="cls-3" d="m247.08,274.16l-1.25.68c-.14-.17-.32-.25-.53-.25-.37,0-.69.31-.69.7s.31.7.69.7c.21,0,.39-.08.53-.25l1.25.68c-.41.58-1.09.94-1.86.94-.61,0-1.13-.2-1.57-.61-.43-.41-.65-.9-.65-1.47s.22-1.06.65-1.47c.44-.41.96-.61,1.57-.61.77,0,1.45.37,1.86.94Z"/>
      <path class="cls-3" d="m252.8,275.3c0,.58-.23,1.06-.69,1.47-.45.41-1,.61-1.64.61s-1.19-.2-1.65-.61c-.45-.41-.68-.9-.68-1.47s.23-1.06.68-1.47c.46-.41,1.01-.61,1.65-.61,1.25-.02,2.36.95,2.33,2.08Zm-2.84.5c.41.46,1.24.1,1.21-.5,0-.39-.32-.7-.7-.7-.61-.03-.96.8-.5,1.2Z"/>
      <path class="cls-3" d="m258.57,275.3c0,.58-.23,1.06-.69,1.47-.45.41-1,.61-1.64.61s-1.19-.2-1.65-.61c-.45-.41-.68-.9-.68-1.47s.23-1.06.68-1.47c.46-.41,1.01-.61,1.65-.61,1.25-.02,2.36.95,2.33,2.08Zm-2.84.5c.41.46,1.24.1,1.21-.5,0-.39-.31-.7-.7-.7-.61-.03-.96.8-.5,1.2Z"/>
      <path class="cls-3" d="m263.95,273.81c.3.39.45.89.45,1.49s-.15,1.1-.45,1.49-.71.59-1.25.59c-.47,0-.87-.18-1.22-.54v2.02h-1.64v-5.56h1.64v.46c.35-.36.76-.54,1.23-.54.53,0,.94.2,1.24.59Zm-2.47,1.16v.66c.12.23.36.38.61.38.38,0,.69-.32.69-.7s-.32-.7-.69-.7c-.26,0-.49.14-.61.38Z"/>
      <path class="cls-3" d="m269.28,273.82c.39.39.58.89.58,1.48v.38h-2.68c.02.35.36.53.74.53.32,0,.57-.09.77-.27l.85.75c-.49.46-1.08.69-1.76.69-.6,0-1.11-.2-1.54-.61-.43-.41-.64-.9-.64-1.47s.21-1.06.62-1.47c.42-.41.92-.61,1.51-.61.65,0,1.16.2,1.54.6Zm-2.08,1.11h1.13c0-.33-.22-.57-.57-.57-.32,0-.57.25-.57.57Z"/>
      <path class="cls-3" d="m273.96,274.53c-.48,0-.91.22-1.27.68v2.09h-1.64v-4h1.64v.73c.38-.52.84-.81,1.27-.81v1.31Z"/>
      <path class="cls-3" d="m278.95,274.71v2.58h-1.64v-.46c-.35.36-.76.54-1.25.54-.74,0-1.28-.5-1.28-1.24s.55-1.17,1.43-1.17h1.09v-.1c0-.27-.19-.41-.57-.41-.35,0-.71.11-1.1.31l-.46-1.03c.66-.34,1.33-.52,2.01-.53.96,0,1.76.39,1.76,1.5Zm-1.64.86h-.44c-.31,0-.46.14-.46.4s.17.44.4.44c.19,0,.36-.05.49-.14v-.7Z"/>
      <path class="cls-3" d="m282.18,273.93h.91v1.23h-.91v.54c0,.25.17.37.42.37.17,0,.35-.05.53-.15l.2,1.1c-.44.23-.92.36-1.37.37-.82,0-1.42-.47-1.42-1.4v-.82h-.48v-1.23h.48v-.99h1.64v.99Z"/>
      <path class="cls-3" d="m286.09,272.41c.33.28.33.72,0,1-.33.28-.87.28-1.21,0-.33-.28-.33-.72,0-1s.87-.28,1.21,0Zm.22,4.89h-1.64v-3.42h1.64v3.42Z"/>
      <path class="cls-3" d="m290.9,277.3h-2.04l-1.46-4h1.75l.73,2.34.73-2.34h1.75l-1.46,4Z"/>
      <path class="cls-3" d="m296.65,273.82c.39.39.58.89.58,1.48v.38h-2.68c.02.35.36.53.74.53.31,0,.57-.09.77-.27l.85.75c-.49.46-1.08.69-1.76.69-.6,0-1.11-.2-1.54-.61-.43-.41-.64-.9-.64-1.47s.21-1.06.62-1.47c.42-.41.92-.61,1.51-.61.65,0,1.17.2,1.54.6Zm-2.08,1.11h1.13c0-.33-.22-.57-.57-.57-.31,0-.57.25-.57.57Z"/>
    </g>
  </g>
</svg>