<?xml version="1.0" encoding="UTF-8" standalone="no"?>
<!DOCTYPE svg PUBLIC "-//W3C//DTD SVG 1.1//EN" "http://www.w3.org/Graphics/SVG/1.1/DTD/svg11.dtd">
<svg width="100%" height="100%" viewBox="0 0 440 129" version="1.1" xmlns="http://www.w3.org/2000/svg" xmlns:xlink="http://www.w3.org/1999/xlink" xml:space="preserve" xmlns:serif="http://www.serif.com/" style="fill-rule:evenodd;clip-rule:evenodd;stroke-linejoin:round;stroke-miterlimit:2;">
    <g transform="matrix(1,0,0,1,-12.01,-53.29)">
        <g id="details">
            <g>
                <path d="M139.32,87.99C141.12,87.6 142.56,87.26 143,87.14C144.34,86.76 145.29,85.63 145.48,84.19C145.8,81.78 144.02,78.97 141.07,77.19C139.32,76.14 136.36,75.47 132.05,75.15C131.78,75.1 131.5,75.08 131.22,75.08L130.75,75.08C130.69,75.06 130.62,75.04 130.56,75.03L128.01,72.44C115.82,60.09 99.56,53.29 82.21,53.29C46.73,53.29 17.87,82.15 17.87,117.63C17.87,119.47 17.95,121.35 18.12,123.24L18.18,123.89C16.01,125.18 13.89,126.97 14.27,128.93L14.39,129.53C14.24,129.7 14.1,129.87 13.97,130.03C13.21,130.99 12.89,131.76 12.81,131.98L12.01,134.11L13.97,135.27C14.13,135.37 15.2,135.98 16.66,136.36L15.18,138.12L21.15,137.92C29.9,164.27 54.44,181.97 82.22,181.97C83.64,181.97 85.12,181.91 86.88,181.78L89.52,181.59L88.85,166.79C88.85,166.79 88.88,166.74 88.89,166.72C89.46,165.79 90.16,164.64 91.97,163.93C93.01,163.52 94.5,163.29 96.06,163.29C97.35,163.29 98.67,163.45 99.87,163.75C102.67,164.46 103,165.09 103.88,166.79L104.77,168.47L104.48,169.16L106.54,177.28L109.52,175.88C132.02,165.32 146.55,142.45 146.55,117.62C146.55,107.3 144.05,97.09 139.32,87.99Z" style="fill:white;fill-rule:nonzero;"/>
                <circle cx="82.21" cy="117.63" r="64.34" style="fill:white;"/>
                <g>
                    <path d="M86.85,158.19L85.75,158.29L85.79,159.13C86.11,158.8 86.47,158.48 86.86,158.19L86.85,158.19Z" style="fill:none;fill-rule:nonzero;"/>
                    <path d="M87.87,156.14C87.8,156.38 87.72,156.61 87.65,156.82L87.26,157.9C88.08,157.36 89.04,156.92 90.12,156.68C90.91,156.5 91.91,156.18 92.62,155.9C92.5,154.76 92.23,154.03 91.9,153.31C88.61,153.75 88.25,154.92 87.87,156.14Z" style="fill:none;fill-rule:nonzero;"/>
                    <path d="M22.66,122.24C26.72,120.72 31.44,119.77 34.26,119.2C35.01,119.05 35.86,118.88 36.07,118.81C36.82,118.56 41.95,116.42 45.03,115.08C45.38,114.12 46.37,113.4 47.12,112.86C47.75,112.41 49.01,111.55 50.49,110.88C50.96,110.67 51.76,110.27 52.78,109.77C56.35,108.01 62.27,105.09 66.3,103.84C67.39,103.24 72.49,100.42 77.95,97.65C82.62,95.28 90.07,93.31 91.39,93.18C91.94,93.06 93.69,92.12 94.85,91.49C96.18,90.77 97.69,89.96 99.06,89.37L99.21,89.31L99.42,89.22L100.54,88.76L100.58,88.79C100.58,88.79 100.68,88.75 100.73,88.73C104.28,84.01 109.25,78.34 113.04,76.04C115.61,74.48 118.46,73.65 121.29,73.65C123.05,73.65 124.36,73.97 124.97,74.15C125.3,74.18 125.67,74.26 126.09,74.36C114.92,63.04 99.39,56.01 82.23,56.01C48.2,56.01 20.61,83.6 20.61,117.63C20.61,119.44 20.69,121.23 20.85,123.01C21.19,122.86 21.54,122.7 21.92,122.55C22.17,122.45 22.41,122.35 22.68,122.25L22.66,122.24Z" style="fill:rgb(6,189,227);fill-rule:nonzero;"/>
                    <path d="M83.61,166.44C83.11,165.17 83.25,163.37 83.98,161.73C84.36,160.88 84.96,159.96 85.78,159.12L85.74,158.28L85.62,158.28L85.52,158.29C84.34,158.29 82.89,157.44 82.67,155.05C82.47,152.84 83.35,150.42 85.32,148.92L85.14,144.99C84.92,144.74 84.74,144.43 84.65,144.03C84.63,143.94 84.58,143.76 84.52,143.5C84.24,143.53 83.96,143.56 83.76,143.56C83.05,143.56 82.55,143.27 82.27,143.03C81.99,142.79 82.24,143.01 82.24,143.01C81.26,142.21 80.32,141.28 79.51,140.3C79.17,140.35 78.89,140.38 78.62,140.38L78.5,140.38C77.99,140.36 77.26,140.22 75.66,139.9C74.3,139.63 72.61,139.29 70.8,139C69.95,138.96 69.07,138.86 68.17,138.72C67.9,138.68 67.63,138.63 67.35,138.58L67.13,138.54C66.31,138.47 65.56,138.44 64.91,138.44C64.47,138.44 64.05,138.46 63.68,138.49C60.14,138.78 57.31,139.17 55.28,139.65C55.03,139.71 54.8,139.74 54.58,139.74C53.83,139.74 53.16,139.41 52.74,138.87C52.1,138.92 51.52,138.95 51.12,138.95C50.63,138.95 50.1,138.91 49.58,138.6C49.45,138.53 49.33,138.44 49.22,138.36C48.22,138.47 46.77,138.61 45.77,138.61C43.45,138.61 42.79,137.49 42.64,136.56C42.62,136.41 42.6,136.25 42.61,136.08C41.63,136.2 40.75,136.28 39.94,136.31C39.36,136.34 38.71,136.35 38.03,136.35C36.48,136.35 34.65,136.28 33.02,136.14C31.03,135.98 30.26,135.84 29.79,135.61C29.26,135.73 28.44,135.93 27.59,136.14C26.13,136.51 24.82,136.83 23.7,137.06C31.84,161.57 54.95,179.25 82.19,179.25C83.69,179.25 85.18,179.18 86.66,179.07L86.18,168.52L85.09,168.06C84.61,167.86 83.97,167.41 83.59,166.44L83.61,166.44ZM86.5,178.97L86.5,178.95L86.5,178.97Z" style="fill:rgb(6,189,227);fill-rule:nonzero;"/>
                    <path d="M130.1,98.71C129.18,100.77 128.38,102.54 128.11,103.22C127.95,103.62 127.7,104.03 127.33,104.47C126.95,105.54 126.52,106.63 126.05,107.71C125.85,108.18 125.63,108.67 125.35,109.25L125.29,109.39L125.21,109.52C122.39,113.91 114.97,124.15 107.11,131.52L106.98,131.65C106.92,131.71 106.86,131.77 106.8,131.82C106.65,131.99 105.76,132.99 105.45,134.24C105.2,135.26 103.74,140.71 103.26,141.61C102.83,142.41 102.02,142.91 101.14,142.91C100.95,142.91 100.78,142.89 100.61,142.85L101.81,147.57C103.63,148.64 105.09,149.88 105.53,150.67C105.55,150.71 105.59,150.76 105.62,150.81C106.16,151.68 107.42,153.7 106.04,157.21L105.75,157.95C105.88,158.04 106.02,158.13 106.16,158.24L106.2,158.27L106.22,158.29C106.8,158.73 107.88,159.56 108.55,160.97C109.36,162.67 109.32,164.62 108.43,166.76L107.34,169.38L108.37,173.43C129.33,163.59 143.84,142.31 143.84,117.63C143.84,106.94 141.12,96.88 136.33,88.12C135.73,88.25 135.11,88.37 134.51,88.49C133.9,90.17 132.62,93.13 130.11,98.71L130.1,98.71Z" style="fill:rgb(6,189,227);fill-rule:nonzero;"/>
                </g>
                <path d="M139.67,79.52C137.96,78.5 134.46,78.04 131.68,77.85C131.48,77.8 131.26,77.79 131.02,77.81C130.83,77.8 130.65,77.79 130.48,77.78C128.9,77.56 125.65,76.36 124.64,76.36C124.64,76.36 119.86,74.57 114.3,77.95C110.89,80.03 106.21,85.34 102.89,89.71C102.74,90.1 102.64,90.76 103.08,91.54C103.95,92.88 105.21,94.62 106.35,96.07C108.63,98.97 109.49,102.82 109.49,102.82C102.87,95.1 94.45,95.11 92.47,95.23C92.15,95.35 91.86,95.42 91.65,95.43C91.06,95.45 83.72,97.3 79.07,99.66C72.91,102.78 67.29,105.93 67.29,105.93C62.32,107.42 53.74,111.92 51.52,112.93C49.31,113.94 47.19,115.65 47.26,115.83C47.34,116.01 48.63,115.81 48.54,115.99C48.45,116.18 37.95,120.59 36.86,120.95C35.77,121.3 28.91,122.34 23.54,124.35C23.29,124.44 23.06,124.54 22.82,124.63C18.03,126.57 16.51,128.71 17,128.41C17.18,128.3 17.84,128.08 18.66,127.86C20.1,127.46 22.05,127.03 22.76,127.04C23.87,127.04 32.21,125.86 31.95,126.05C31.68,126.24 31.12,126.47 23.96,127.71C19.34,128.51 17.11,130.45 16.1,131.73C15.54,132.44 15.35,132.95 15.35,132.95C15.35,132.95 17.27,134.08 19.24,133.95C20.06,133.9 22.55,133.51 25.18,133.08C25.84,133.13 26.51,133.17 27.2,133.21C21.6,134.73 21.19,135.21 21.19,135.21C23.14,135.15 28.4,133.58 29.93,133.33C30.16,133.33 30.41,133.35 30.65,133.35C30.7,133.41 30.77,133.49 30.88,133.58C31.13,133.78 36.24,134.24 39.96,134.07C40.97,134.02 42.01,133.91 43,133.78C45.65,133.43 47.95,132.93 48.45,133.05C49.14,133.22 52.86,133.6 52.86,133.6C51.91,133.83 51.08,134.03 50.34,134.21C45.82,135.34 44.91,135.78 44.98,136.19C45.06,136.67 50.18,136 50.18,136C50.18,136 50.49,136.45 50.85,136.67C51.21,136.88 57.72,136.12 56.61,136.38C55.5,136.64 53.98,137.68 54.9,137.47C55.82,137.26 58.34,136.7 63.62,136.26C64.8,136.16 66.15,136.21 67.55,136.33C67.92,136.39 68.29,136.46 68.64,136.52C69.52,136.67 70.36,136.75 71.15,136.78C74.74,137.35 77.96,138.13 78.69,138.16C79.12,138.17 79.79,138.03 80.54,137.83C82.03,139.95 83.79,141.3 83.84,141.35C83.86,141.37 84.4,141.32 85.19,141.19C85.7,141.48 86.18,141.77 86.63,142.07C86.79,142.96 86.95,143.52 86.96,143.56C86.96,143.59 87.25,143.74 87.69,143.89C87.92,144.64 88.43,145.42 89.33,146.21C90.03,146.83 90.59,147.75 91.15,148.37C90.58,149.09 90.32,149.58 88.91,149.83C84.28,150.66 84.61,156.18 85.67,156.08C86.32,154.29 86.44,151.34 93.43,150.95C94.04,152.57 95.05,153.73 95.05,157.19C94.23,157.92 91.79,158.65 90.75,158.88C88.47,159.39 86.87,161.06 86.16,162.66C85.44,164.27 85.64,165.81 86.13,166.02C86.79,165.24 87.63,162.74 91,161.42C93.24,160.54 96.98,160.24 100.56,161.14C104.78,162.21 105.39,163.81 106.5,165.92C107.99,162.36 105.94,160.82 104.97,160.08C103.3,158.86 103.13,159.31 100.4,157.81C98.8,156.93 97.35,153.28 95.75,150.91L96.18,150.91C100.53,151 102.62,153.48 104.08,156.42C105.17,153.65 104.06,152.44 103.7,151.79C103.33,151.13 100.14,148.7 97.11,147.96C95.14,147.48 94.31,146.22 91.93,144.13C91.91,144.03 91.9,143.93 91.89,143.84C92.4,143.45 92.76,142.82 92.83,141.81C92.93,140.34 94.08,138.61 95.54,136.98C96.13,137.16 96.62,137.23 96.62,137.23C96.62,137.23 95.73,141.98 96.28,141.39C96.83,140.8 100,136.31 100,136.31C100.43,140.23 101.17,141.04 101.41,140.59C101.65,140.14 102.91,135.76 103.4,133.74C103.89,131.72 105.35,130.26 105.35,130.26C105.47,130.15 105.59,130.03 105.71,129.92C113.64,122.48 121.05,112.08 123.46,108.34C123.69,107.85 123.91,107.36 124.13,106.86C124.63,105.71 125.09,104.54 125.5,103.36C125.83,103 126.06,102.68 126.16,102.43C127.05,100.18 132.75,88.05 132.87,86.59C136.77,85.83 141.52,84.77 142.27,84.56C143.46,84.22 142.74,81.39 139.68,79.56L139.67,79.52Z" style="fill:rgb(43,22,61);fill-rule:nonzero;"/>
            </g>
        </g>
    </g>
    <g id="txt" transform="matrix(1,0,0,1,-10.55,-65.25)">
        <g transform="matrix(1,0,0,1,-1.46,11.96)">
            <g>
                <path d="M427.6,127.73L429.07,134.96L432.72,127.73" style="fill:none;fill-rule:nonzero;"/>
                <path d="M431.69,129.81L432.75,127.73L432.72,127.73L429.07,134.96L431.69,129.81Z" style="fill:none;fill-rule:nonzero;"/>
                <path d="M427.59,127.73L428.3,131.18L429.07,134.96L427.6,127.73L427.59,127.73Z" style="fill:none;fill-rule:nonzero;"/>
                <path d="M433.46,126.32L432.75,127.73L431.69,129.81L429.07,134.96L428.3,131.18L427.6,127.73L427.31,126.32L397.59,126.32C391.75,126.32 386.56,129.58 383.23,134.61C380.36,129.58 375.06,126.33 368.7,126.33C364.04,126.33 359.64,128.13 356.12,131.06L357.45,122.67L358.44,116.41L341.75,116.41L341.03,120.98L339.03,133.56C336.05,129.14 331.05,126.34 325.15,126.34C319.25,126.34 314.23,128.99 310.46,133.09C307.42,128.84 302.62,126.34 297.25,126.34C292.99,126.34 288.96,127.92 285.63,130.5L285.9,128.8L286.87,122.7L287.87,116.43L251.26,116.43L250.54,121L249.03,130.53C246.81,128.15 243.63,126.72 239.88,126.42L239.88,126.35L195.72,126.35C193.1,126.35 190.63,126.99 188.39,128.13C187.86,125.98 186.93,124.06 185.56,122.43C182.18,118.4 176.73,116.44 168.89,116.44L148.39,116.44L147.6,120.92L141.16,157.45L140.04,163.81L162.4,163.81L163.19,159.33L164.15,153.88L165.02,153.88C167.6,153.88 172.84,153.88 177.78,151.66C179.07,159.36 184.6,164.32 192.36,164.32L232.29,164.32C232.23,164.49 232.16,164.69 232.06,164.95C231.8,165.68 231.66,166.48 231.66,167.32C231.66,169.93 233.01,172.17 235.08,173.4C235.5,173.67 236.41,174.12 237.65,174.31C238.03,174.37 238.41,174.41 238.81,174.41L375.22,174.41C375.49,174.41 375.75,174.36 376.01,174.34C377.33,174.23 378.58,173.85 379.7,173.2C379.81,173.14 379.91,173.08 380.02,173.01C380.43,172.75 380.83,172.46 381.21,172.12C381.52,171.84 381.81,171.57 382.07,171.31C382.5,171.53 382.95,171.76 383.47,172.01C383.88,172.21 384.3,172.4 384.73,172.58C384.77,172.6 384.8,172.61 384.84,172.63C385.21,172.79 385.58,172.93 385.96,173.07C386.04,173.1 386.12,173.13 386.2,173.16C386.55,173.28 386.89,173.4 387.24,173.5C387.31,173.52 387.39,173.55 387.46,173.57C387.87,173.69 388.28,173.8 388.69,173.9C388.75,173.91 388.8,173.93 388.86,173.94C389.3,174.04 389.75,174.13 390.19,174.21L390.23,174.21C391.57,174.45 392.94,174.57 394.32,174.58L394.45,174.58C398.92,174.58 402.8,173.38 405.91,171.16L408.95,172.5C411.21,173.49 413.96,174.5 417.25,174.5L417.44,174.5C423.73,174.45 428.64,170.9 432.43,163.63L447.38,134.78L451.02,127.75L451.48,126.87L451.75,126.34L433.47,126.34L433.46,126.32Z" style="fill:white;fill-rule:nonzero;"/>
            </g>
            <g>
                <path d="M280.57,127.92L261.05,127.92L259.61,136.97L277.69,136.97L276.77,142.78L258.69,142.78L257.19,152.25L277.09,152.25L276.12,158.36L250.1,158.36L255.9,121.82L281.54,121.82L280.57,127.92Z" style="fill:rgb(43,22,61);fill-rule:nonzero;"/>
                <path d="M306.79,137.34L302.27,139.69C301.17,137.98 299.45,137.13 297.45,137.13C292.76,137.13 288.23,141.97 288.23,147.13C288.23,150.76 290.65,153.48 294.08,153.48C296.55,153.48 298.84,152.17 300.46,150.35L304.59,153.45C301.75,156.86 297.76,158.88 293.73,158.88C287.29,158.88 282.69,153.83 282.69,147.2C282.69,138.82 289.79,131.74 297.27,131.74C301.6,131.74 304.99,134.06 306.8,137.34L306.79,137.34Z" style="fill:rgb(43,22,61);fill-rule:nonzero;"/>
                <path d="M336.57,143.48C336.57,151.83 329.31,158.88 321.62,158.88C314.97,158.88 310.21,153.8 310.21,147.14C310.21,138.79 317.47,131.74 325.16,131.74C331.81,131.74 336.57,136.82 336.57,143.48ZM315.75,147.12C315.75,150.76 318.2,153.48 321.67,153.48C326.46,153.48 330.95,148.58 330.95,143.49C330.95,139.85 328.5,137.13 325.03,137.13C320.24,137.13 315.75,142.03 315.75,147.12Z" style="fill:rgb(43,22,61);fill-rule:nonzero;"/>
                <path d="M346.31,158.35L340.59,158.35L346.39,121.81L352.11,121.81L346.31,158.35Z" style="fill:rgb(43,22,61);fill-rule:nonzero;"/>
                <path d="M380.12,143.48C380.12,151.83 372.86,158.88 365.17,158.88C358.52,158.88 353.76,153.8 353.76,147.14C353.76,138.79 361.02,131.74 368.71,131.74C375.36,131.74 380.12,136.82 380.12,143.48ZM359.3,147.12C359.3,150.76 361.75,153.48 365.22,153.48C370.01,153.48 374.5,148.58 374.5,143.49C374.5,139.85 372.05,137.13 368.58,137.13C363.79,137.13 359.3,142.03 359.3,147.12Z" style="fill:rgb(43,22,61);fill-rule:nonzero;"/>
                <path d="M405.77,135.84L406.35,132.26L412.2,132.26L408.33,156.62C406.91,165.57 401.11,169.18 394.35,169.14C390.05,169.11 386.02,167.66 382.71,165.24L384.75,161.34C387.34,163.29 390.39,164.28 393.21,164.31C397.95,164.34 401.59,161.5 402.65,156.13L402.95,154.56C400.52,157.36 397.33,158.86 394.14,158.86C388.32,158.86 384.81,153.99 384.81,147.67C384.81,139.39 390.37,131.71 397.6,131.71C401.09,131.71 403.89,133.37 405.77,135.82L405.77,135.84ZM390.48,146.62C390.48,150.53 393.01,153.78 396.56,153.78C399.37,153.78 402.12,151.64 403.79,148.93L405.14,140.51C403.91,138.44 401.77,137.12 399.17,137.12C394.7,137.12 390.49,141.66 390.49,146.61L390.48,146.62Z" style="fill:rgb(43,22,61);fill-rule:nonzero;"/>
                <path d="M427.62,161.1C424.31,167.44 420.87,169.04 417.36,169.06C414.98,169.09 412.88,168.29 411.12,167.51L413.05,163.49C414.01,163.94 415.64,164.69 417.22,164.62C419.26,164.55 421.1,163.48 423.04,159.89L423.17,159.16L417.08,132.25L422.99,132.25L426.87,151.24L436.52,132.26L442.56,132.26L427.62,161.1Z" style="fill:rgb(43,22,61);fill-rule:nonzero;"/>
            </g>
            <g>
                <path d="M168.9,121.82C180.32,121.82 184.85,126.53 183.18,136.02C181.64,144.73 176.07,148.43 165.03,148.43L159.61,148.43L157.86,158.35L146.5,158.35L152.94,121.81L168.9,121.81L168.9,121.82ZM162.55,131.58L161.11,139.73L165.65,139.73C169.11,139.73 170.91,138.49 171.4,135.69C171.9,132.88 170.62,131.58 167.05,131.58L162.55,131.58Z" style="fill:rgb(43,22,61);fill-rule:nonzero;"/>
                <path d="M214.84,132.26L210.24,158.36L199.69,158.36L200.35,155.61C197.88,157.83 195.03,158.88 192.35,158.88C186.09,158.88 182.9,154.28 182.9,148.08C182.9,139.66 187.88,131.73 195.72,131.73C199.11,131.73 201.7,133.36 203.4,135.58L204.2,132.25L214.84,132.25L214.84,132.26ZM192.71,146.14C192.71,148.29 194.25,149.91 196.42,149.91C198.11,149.91 199.77,148.92 200.78,147.47L201.54,143.15C201.04,141.7 199.74,140.71 198.04,140.71C195.27,140.71 192.71,143.34 192.71,146.13L192.71,146.14Z" style="fill:rgb(43,22,61);fill-rule:nonzero;"/>
                <path d="M246.61,140.43L243.45,158.36L232.83,158.36L235.56,142.87C235.9,140.92 235.26,140.28 233.95,140.28C231.94,140.28 230.15,141.06 228.69,142.04L225.53,158.35L214.91,158.35L219.51,132.25L229.88,132.25L229.43,134.58C232.43,132.58 235.79,131.73 238.37,131.73C243.66,131.73 247.6,134.7 246.59,140.42L246.61,140.43Z" style="fill:rgb(43,22,61);fill-rule:nonzero;"/>
            </g>
        </g>
        <g transform="matrix(1,0,0,1,-1.46,11.96)">
            <path d="M242.71,165.36L242.71,168.86L240.49,168.86L240.49,168.23C240.02,168.72 239.46,168.97 238.8,168.97C237.79,168.97 237.07,168.3 237.07,167.29C237.07,166.28 237.81,165.71 239.01,165.71L240.49,165.71L240.49,165.58C240.49,165.21 240.23,165.03 239.71,165.03C239.24,165.04 238.75,165.18 238.22,165.45L237.6,164.05C238.5,163.58 239.41,163.35 240.33,163.34C241.63,163.34 242.72,163.87 242.72,165.36L242.71,165.36ZM240.5,166.53L239.9,166.53C239.48,166.53 239.28,166.71 239.28,167.07C239.28,167.43 239.51,167.67 239.83,167.67C240.08,167.67 240.31,167.61 240.5,167.48L240.5,166.53Z" style="fill:rgb(43,22,61);fill-rule:nonzero;"/>
            <path d="M255.11,168.86L252.73,168.86L252.17,166.73L251.62,168.86L249.23,168.86L247.69,163.45L249.9,163.45L250.54,166.49L251.33,163.45L253.03,163.45L253.81,166.49L254.44,163.45L256.66,163.45L255.11,168.86Z" style="fill:rgb(43,22,61);fill-rule:nonzero;"/>
            <path d="M263.97,166.15C263.97,166.93 263.66,167.59 263.04,168.14C262.43,168.69 261.68,168.96 260.82,168.96C259.96,168.96 259.21,168.69 258.59,168.14C257.98,167.59 257.67,166.93 257.67,166.15C257.67,165.37 257.98,164.71 258.59,164.16C259.21,163.61 259.96,163.34 260.82,163.34C262.52,163.31 264.02,164.63 263.97,166.15ZM260.13,166.82C260.68,167.44 261.81,166.96 261.76,166.15C261.76,165.62 261.33,165.2 260.81,165.2C259.99,165.16 259.51,166.28 260.13,166.82Z" style="fill:rgb(43,22,61);fill-rule:nonzero;"/>
            <path d="M269.58,165.11C268.93,165.11 268.35,165.41 267.86,166.03L267.86,168.86L265.64,168.86L265.64,163.45L267.86,163.45L267.86,164.44C268.38,163.74 269,163.35 269.58,163.35L269.58,165.12L269.58,165.11Z" style="fill:rgb(43,22,61);fill-rule:nonzero;"/>
            <path d="M273.3,165.19L274.58,163.45L277.21,163.45L275.49,165.66L277.32,168.86L274.9,168.86L273.95,167.25L273.3,167.98L273.3,168.87L271.08,168.87L271.08,162.97L273.3,162.97L273.3,165.21L273.3,165.19Z" style="fill:rgb(43,22,61);fill-rule:nonzero;"/>
            <path d="M283.14,164.15C283.67,164.68 283.93,165.35 283.93,166.15L283.93,166.67L280.31,166.67C280.33,167.15 280.79,167.39 281.31,167.39C281.74,167.39 282.08,167.27 282.35,167.02L283.5,168.04C282.83,168.66 282.04,168.97 281.11,168.97C280.3,168.97 279.61,168.7 279.03,168.15C278.45,167.6 278.17,166.94 278.17,166.16C278.17,165.38 278.45,164.72 279.01,164.17C279.58,163.62 280.26,163.35 281.06,163.35C281.94,163.35 282.64,163.62 283.15,164.16L283.14,164.15ZM280.32,165.65L281.86,165.65C281.86,165.21 281.56,164.88 281.09,164.88C280.66,164.88 280.32,165.22 280.32,165.65Z" style="fill:rgb(43,22,61);fill-rule:nonzero;"/>
            <path d="M289.49,165.11C288.84,165.11 288.26,165.41 287.77,166.03L287.77,168.86L285.55,168.86L285.55,163.45L287.77,163.45L287.77,164.44C288.28,163.74 288.91,163.35 289.49,163.35L289.49,165.12L289.49,165.11Z" style="fill:rgb(43,22,61);fill-rule:nonzero;"/>
            <path d="M295.69,163.95L294.97,165.28C294.35,164.95 293.78,164.78 293.24,164.78C293.05,164.78 292.96,164.84 292.96,164.98C292.96,165.08 293.03,165.12 293.59,165.26C294.32,165.44 294.72,165.61 295.16,165.88C295.6,166.15 295.79,166.55 295.79,167.1C295.79,168.28 294.93,168.95 293.44,168.95C292.38,168.95 291.45,168.69 290.65,168.17L291.42,166.9C292.08,167.3 292.74,167.5 293.42,167.5C293.63,167.5 293.74,167.44 293.74,167.31C293.74,167.23 293.71,167.18 293.65,167.16C293.59,167.13 293.41,167.07 293.1,167L292.39,166.8C292.05,166.68 291.54,166.45 291.31,166.24C291.08,166.01 290.89,165.64 290.89,165.18C290.89,163.93 291.93,163.34 293.26,163.34C294.19,163.34 295,163.54 295.7,163.96L295.69,163.95Z" style="fill:rgb(43,22,61);fill-rule:nonzero;"/>
            <path d="M299.34,163.42L297.82,165.61L297.2,165.34L297.83,163.79C297.45,163.64 297.18,163.3 297.18,162.91C297.18,162.36 297.69,161.92 298.34,161.92C298.99,161.92 299.51,162.35 299.51,162.91C299.51,163.09 299.45,163.27 299.34,163.42Z" style="fill:rgb(43,22,61);fill-rule:nonzero;"/>
            <path d="M310.13,164.62L308.43,165.54C308.24,165.31 308,165.2 307.72,165.2C307.22,165.2 306.79,165.62 306.79,166.15C306.79,166.68 307.21,167.1 307.72,167.1C308,167.1 308.25,166.99 308.43,166.76L310.13,167.68C309.57,168.46 308.65,168.96 307.61,168.96C306.79,168.96 306.08,168.69 305.49,168.14C304.91,167.59 304.61,166.93 304.61,166.15C304.61,165.37 304.91,164.71 305.49,164.16C306.08,163.61 306.79,163.34 307.61,163.34C308.65,163.34 309.57,163.84 310.13,164.62Z" style="fill:rgb(43,22,61);fill-rule:nonzero;"/>
            <path d="M317.88,166.15C317.88,166.93 317.57,167.59 316.95,168.14C316.34,168.69 315.59,168.96 314.73,168.96C313.87,168.96 313.12,168.69 312.5,168.14C311.89,167.59 311.58,166.93 311.58,166.15C311.58,165.37 311.89,164.71 312.5,164.16C313.12,163.61 313.87,163.34 314.73,163.34C316.43,163.31 317.93,164.63 317.88,166.15ZM314.04,166.82C314.59,167.44 315.72,166.96 315.67,166.15C315.67,165.62 315.24,165.2 314.72,165.2C313.9,165.16 313.42,166.28 314.04,166.82Z" style="fill:rgb(43,22,61);fill-rule:nonzero;"/>
            <path d="M325.69,166.15C325.69,166.93 325.38,167.59 324.76,168.14C324.15,168.69 323.4,168.96 322.54,168.96C321.68,168.96 320.93,168.69 320.31,168.14C319.7,167.59 319.39,166.93 319.39,166.15C319.39,165.37 319.7,164.71 320.31,164.16C320.93,163.61 321.68,163.34 322.54,163.34C324.24,163.31 325.74,164.63 325.69,166.15ZM321.84,166.82C322.39,167.44 323.52,166.96 323.47,166.15C323.47,165.62 323.04,165.2 322.52,165.2C321.7,165.16 321.22,166.28 321.84,166.82Z" style="fill:rgb(43,22,61);fill-rule:nonzero;"/>
            <path d="M332.97,164.14C333.38,164.67 333.58,165.34 333.58,166.15C333.58,166.96 333.37,167.63 332.97,168.16C332.57,168.69 332.01,168.96 331.28,168.96C330.65,168.96 330.1,168.71 329.63,168.22L329.63,170.96L327.41,170.96L327.41,163.44L329.63,163.44L329.63,164.07C330.1,163.58 330.66,163.33 331.29,163.33C332,163.33 332.56,163.6 332.97,164.13L332.97,164.14ZM329.63,165.71L329.63,166.6C329.79,166.91 330.11,167.11 330.46,167.11C330.98,167.11 331.39,166.68 331.39,166.16C331.39,165.64 330.95,165.21 330.46,165.21C330.11,165.21 329.79,165.4 329.63,165.72L329.63,165.71Z" style="fill:rgb(43,22,61);fill-rule:nonzero;"/>
            <path d="M340.19,164.15C340.71,164.68 340.98,165.35 340.98,166.15L340.98,166.67L337.35,166.67C337.37,167.15 337.83,167.39 338.35,167.39C338.78,167.39 339.12,167.27 339.39,167.02L340.54,168.04C339.87,168.66 339.08,168.97 338.15,168.97C337.34,168.97 336.65,168.7 336.07,168.15C335.49,167.6 335.21,166.94 335.21,166.16C335.21,165.38 335.49,164.72 336.05,164.17C336.62,163.62 337.3,163.35 338.1,163.35C338.98,163.35 339.68,163.62 340.19,164.16L340.19,164.15ZM337.36,165.65L338.9,165.65C338.9,165.21 338.61,164.88 338.13,164.88C337.7,164.88 337.36,165.22 337.36,165.65Z" style="fill:rgb(43,22,61);fill-rule:nonzero;"/>
            <path d="M346.53,165.11C345.88,165.11 345.3,165.41 344.81,166.03L344.81,168.86L342.59,168.86L342.59,163.45L344.81,163.45L344.81,164.44C345.32,163.74 345.95,163.35 346.53,163.35L346.53,165.12L346.53,165.11Z" style="fill:rgb(43,22,61);fill-rule:nonzero;"/>
            <path d="M353.28,165.36L353.28,168.86L351.06,168.86L351.06,168.23C350.59,168.72 350.03,168.97 349.37,168.97C348.36,168.97 347.64,168.3 347.64,167.29C347.64,166.28 348.39,165.71 349.58,165.71L351.06,165.71L351.06,165.58C351.06,165.21 350.8,165.03 350.28,165.03C349.81,165.04 349.32,165.18 348.79,165.45L348.17,164.05C349.07,163.58 349.98,163.35 350.9,163.34C352.2,163.34 353.29,163.87 353.29,165.36L353.28,165.36ZM351.07,166.53L350.47,166.53C350.05,166.53 349.85,166.71 349.85,167.07C349.85,167.43 350.08,167.67 350.4,167.67C350.65,167.67 350.88,167.61 351.07,167.48L351.07,166.53Z" style="fill:rgb(43,22,61);fill-rule:nonzero;"/>
            <path d="M357.65,164.3L358.89,164.3L358.89,165.97L357.65,165.97L357.65,166.7C357.65,167.04 357.88,167.2 358.22,167.2C358.45,167.2 358.69,167.14 358.93,167L359.2,168.48C358.6,168.79 357.95,168.97 357.34,168.98C356.23,168.99 355.42,168.34 355.42,167.09L355.42,165.98L354.77,165.98L354.77,164.31L355.42,164.31L355.42,162.97L357.64,162.97L357.64,164.31L357.65,164.3Z" style="fill:rgb(43,22,61);fill-rule:nonzero;"/>
            <path d="M362.95,162.24C363.4,162.62 363.4,163.21 362.95,163.59C362.5,163.97 361.77,163.97 361.32,163.59C360.87,163.21 360.87,162.62 361.32,162.24C361.77,161.86 362.5,161.86 362.95,162.24ZM363.24,168.86L361.02,168.86L361.02,164.23L363.24,164.23L363.24,168.86Z" style="fill:rgb(43,22,61);fill-rule:nonzero;"/>
            <path d="M369.47,168.86L366.7,168.86L364.73,163.45L367.1,163.45L368.09,166.62L369.08,163.45L371.44,163.45L369.47,168.86Z" style="fill:rgb(43,22,61);fill-rule:nonzero;"/>
            <path d="M377.25,164.15C377.77,164.68 378.04,165.35 378.04,166.15L378.04,166.67L374.42,166.67C374.44,167.15 374.9,167.39 375.42,167.39C375.85,167.39 376.19,167.27 376.46,167.02L377.61,168.04C376.94,168.66 376.15,168.97 375.22,168.97C374.41,168.97 373.72,168.7 373.14,168.15C372.56,167.6 372.28,166.94 372.28,166.16C372.28,165.38 372.56,164.72 373.12,164.17C373.69,163.62 374.37,163.35 375.17,163.35C376.05,163.35 376.75,163.62 377.26,164.16L377.25,164.15ZM374.42,165.65L375.96,165.65C375.96,165.21 375.66,164.88 375.19,164.88C374.76,164.88 374.42,165.22 374.42,165.65Z" style="fill:rgb(43,22,61);fill-rule:nonzero;"/>
        </g>
    </g>
</svg>
