<?xml version="1.0" encoding="utf-8"?>
<!-- Generator: Adobe Illustrator 27.8.1, SVG Export Plug-In . SVG Version: 6.00 Build 0)  -->
<svg version="1.1" id="Layer_1" xmlns:serif="http://www.serif.com/"
	 xmlns="http://www.w3.org/2000/svg" xmlns:xlink="http://www.w3.org/1999/xlink" x="0px" y="0px" viewBox="0 0 587.1 561.5"
	 style="enable-background:new 0 0 587.1 561.5;" xml:space="preserve">
<style type="text/css">
	.st0{fill:#FFFFFF;}
	.st1{fill-rule:evenodd;clip-rule:evenodd;fill:#FFFFFF;}
	.st2{fill:none;}
	.st3{fill:#06BDE3;}
	.st4{fill:#2B163D;}
</style>
<g transform="matrix(1,0,0,1,-12.01,-53.29)">
	<g id="details">
		<g>
			<path class="st0" d="M567.5,204.7c7.9-1.7,14.1-3.2,16.1-3.7c5.8-1.7,10-6.6,10.8-12.9c1.4-10.5-6.4-22.8-19.2-30.5
				c-7.6-4.6-20.6-7.5-39.4-8.9c-1.2-0.2-2.4-0.3-3.6-0.3h-2.1c-0.3-0.1-0.6-0.2-0.8-0.2l-11.1-11.3C465,83,394,53.3,318.3,53.3
				C163.5,53.3,37.6,179.2,37.6,334c0,8,0.3,16.2,1.1,24.5l0.3,2.8c-9.5,5.6-18.7,13.4-17.1,22l0.5,2.6c-0.7,0.7-1.3,1.5-1.8,2.2
				c-3.3,4.2-4.7,7.5-5.1,8.5L12,406l8.6,5.1c0.7,0.4,5.4,3.1,11.7,4.8l-6.5,7.7l26.1-0.9c38.2,115,145.3,192.2,266.5,192.2
				c6.2,0,12.7-0.3,20.3-0.8l11.5-0.8l-2.9-64.6c0,0,0.1-0.2,0.2-0.3c2.5-4.1,5.5-9.1,13.4-12.2c4.5-1.8,11-2.8,17.8-2.8
				c5.6,0,11.4,0.7,16.6,2c12.2,3.1,13.7,5.8,17.5,13.3l3.9,7.3l-1.3,3l9,35.4l13-6.1c98.2-46.1,161.6-145.9,161.6-254.2
				C599.1,289,588.2,244.4,567.5,204.7z"/>
			<circle class="st1" cx="318.3" cy="334" r="280.8"/>
			<g>
				<path class="st2" d="M338.6,511l-4.8,0.4l0.2,3.7C335.4,513.7,336.9,512.3,338.6,511L338.6,511z"/>
				<path class="st2" d="M343,502.1c-0.3,1-0.7,2.1-1,3l-1.7,4.7c3.6-2.4,7.8-4.3,12.5-5.3c3.4-0.8,7.8-2.2,10.9-3.4
					c-0.5-5-1.7-8.2-3.1-11.3C346.3,491.7,344.7,496.8,343,502.1z"/>
				<path class="st3" d="M58.5,354.2c17.7-6.6,38.3-10.8,50.6-13.3c3.3-0.7,7-1.4,7.9-1.7c3.3-1.1,25.7-10.4,39.1-16.3
					c1.5-4.2,5.8-7.3,9.1-9.7c2.7-2,8.2-5.7,14.7-8.6c2.1-0.9,5.5-2.7,10-4.8c15.6-7.7,41.4-20.4,59-25.9c4.8-2.6,27-14.9,50.8-27
					c20.4-10.3,52.9-18.9,58.6-19.5c2.4-0.5,10-4.6,15.1-7.4c5.8-3.1,12.4-6.7,18.4-9.3l0.7-0.3l0.9-0.4l4.9-2l0.2,0.1
					c0,0,0.4-0.2,0.7-0.3c15.5-20.6,37.2-45.3,53.7-55.4c11.2-6.8,23.7-10.4,36-10.4c7.7,0,13.4,1.4,16.1,2.2
					c1.4,0.1,3.1,0.5,4.9,0.9c-48.7-49.4-116.5-80.1-191.4-80.1C169.9,65.2,49.5,185.6,49.5,334c0,7.9,0.3,15.7,1,23.5
					c1.5-0.7,3-1.4,4.7-2C56.3,355.1,57.4,354.6,58.5,354.2L58.5,354.2z"/>
				<path class="st3" d="M324.4,547c-2.2-5.5-1.6-13.4,1.6-20.6c1.7-3.7,4.3-7.7,7.9-11.4l-0.2-3.7h-0.5l-0.4,0
					c-5.1,0-11.5-3.7-12.4-14.1c-0.9-9.6,3-20.2,11.6-26.7l-0.8-17.1c-1-1.1-1.7-2.4-2.1-4.2c-0.1-0.4-0.3-1.2-0.6-2.3
					c-1.2,0.1-2.4,0.3-3.3,0.3c-3.1,0-5.3-1.3-6.5-2.3s-0.1-0.1-0.1-0.1c-4.3-3.5-8.4-7.5-11.9-11.8c-1.5,0.2-2.7,0.3-3.9,0.3h-0.5
					c-2.2-0.1-5.4-0.7-12.4-2.1c-5.9-1.2-13.3-2.7-21.2-3.9c-3.7-0.2-7.5-0.6-11.5-1.2c-1.2-0.2-2.4-0.4-3.6-0.6l-1-0.2
					c-3.6-0.3-6.9-0.4-9.7-0.4c-1.9,0-3.8,0.1-5.4,0.2c-15.4,1.3-27.8,3-36.7,5.1c-1.1,0.3-2.1,0.4-3.1,0.4c-3.3,0-6.2-1.4-8-3.8
					c-2.8,0.2-5.3,0.3-7.1,0.3c-2.1,0-4.5-0.2-6.7-1.5c-0.6-0.3-1.1-0.7-1.6-1c-4.4,0.5-10.7,1.1-15.1,1.1c-10.1,0-13-4.9-13.7-8.9
					c-0.1-0.7-0.2-1.4-0.1-2.1c-4.3,0.5-8.1,0.9-11.7,1c-2.5,0.1-5.4,0.2-8.3,0.2c-6.8,0-14.7-0.3-21.9-0.9
					c-8.7-0.7-12-1.3-14.1-2.3c-2.3,0.5-5.9,1.4-9.6,2.3c-6.4,1.6-12.1,3-17,4c35.5,107,136.4,184.1,255.2,184.1
					c6.5,0,13-0.3,19.5-0.8l-2.1-46l-4.8-2C328.8,553.2,326,551.3,324.4,547L324.4,547z M337.1,601.7L337.1,601.7L337.1,601.7z"/>
				<path class="st3" d="M527.3,251.5c-4,9-7.5,16.7-8.7,19.7c-0.7,1.7-1.8,3.5-3.4,5.5c-1.7,4.7-3.5,9.4-5.6,14.1
					c-0.9,2.1-1.8,4.2-3.1,6.7l-0.3,0.6l-0.3,0.6c-12.3,19.2-44.7,63.8-79,96l-0.6,0.6c-0.3,0.3-0.5,0.5-0.8,0.7
					c-0.7,0.7-4.5,5.1-5.9,10.6c-1.1,4.5-7.5,28.2-9.6,32.2c-1.9,3.5-5.4,5.7-9.3,5.7c-0.8,0-1.6-0.1-2.3-0.3l5.2,20.6
					c7.9,4.7,14.3,10.1,16.2,13.5c0.1,0.2,0.3,0.4,0.4,0.6c2.4,3.8,7.9,12.6,1.8,27.9l-1.3,3.2c0.6,0.4,1.2,0.8,1.8,1.3l0.2,0.1
					l0.1,0.1c2.5,1.9,7.2,5.5,10.2,11.7c3.5,7.4,3.4,15.9-0.5,25.3l-4.8,11.4l4.5,17.7C524,534.6,587.3,441.7,587.3,334
					c0-46.6-11.9-90.5-32.8-128.8c-2.6,0.6-5.3,1.1-7.9,1.6C543.9,214.2,538.3,227.1,527.3,251.5L527.3,251.5z"/>
			</g>
			<path class="st4" d="M569.1,167.7c-7.5-4.5-22.7-6.5-34.9-7.3c-0.9-0.2-1.8-0.3-2.9-0.2c-0.8,0-1.6-0.1-2.4-0.1
				c-6.9-1-21.1-6.2-25.5-6.2c0,0-20.9-7.8-45.1,6.9c-14.9,9.1-35.3,32.2-49.8,51.3c-0.7,1.7-1.1,4.6,0.8,8
				c3.8,5.8,9.3,13.4,14.3,19.8c9.9,12.7,13.7,29.5,13.7,29.5c-28.9-33.7-65.6-33.6-74.3-33.1c-1.4,0.5-2.7,0.8-3.6,0.9
				c-2.6,0.1-34.6,8.2-54.9,18.5c-26.9,13.6-51.4,27.4-51.4,27.4c-21.7,6.5-59.1,26.1-68.8,30.5c-9.6,4.4-18.9,11.9-18.6,12.7
				c0.3,0.8,6-0.1,5.6,0.7c-0.4,0.8-46.2,20.1-51,21.6c-4.8,1.5-34.7,6.1-58.1,14.8c-1.1,0.4-2.1,0.8-3.1,1.2
				c-20.9,8.5-27.5,17.8-25.4,16.5c0.8-0.5,3.7-1.4,7.2-2.4c6.3-1.7,14.8-3.6,17.9-3.6c4.8,0,41.2-5.1,40.1-4.3
				c-1.2,0.8-3.6,1.8-34.9,7.2c-20.2,3.5-29.9,12-34.3,17.5c-2.4,3.1-3.3,5.3-3.3,5.3s8.4,4.9,17,4.4c3.6-0.2,14.4-1.9,25.9-3.8
				c2.9,0.2,5.8,0.4,8.8,0.6c-24.4,6.6-26.2,8.7-26.2,8.7c8.5-0.3,31.5-7.1,38.1-8.2c1,0,2.1,0.1,3.1,0.1c0.2,0.3,0.5,0.6,1,1
				c1.1,0.9,23.4,2.9,39.6,2.1c4.4-0.2,8.9-0.7,13.3-1.3c11.6-1.5,21.6-3.7,23.8-3.2c3,0.7,19.2,2.4,19.2,2.4c-4.1,1-7.8,1.9-11,2.7
				c-19.7,4.9-23.7,6.9-23.4,8.6c0.3,2.1,22.7-0.8,22.7-0.8s1.4,2,2.9,2.9c1.6,0.9,30-2.4,25.1-1.3c-4.8,1.1-11.5,5.7-7.5,4.8
				c4-0.9,15-3.4,38.1-5.3c5.1-0.4,11-0.2,17.1,0.3c1.6,0.3,3.2,0.6,4.8,0.8c3.8,0.7,7.5,1,11,1.1c15.7,2.5,29.7,5.9,32.9,6
				c1.9,0,4.8-0.6,8.1-1.4c6.5,9.3,14.2,15.1,14.4,15.4c0.1,0.1,2.4-0.1,5.9-0.7c2.2,1.3,4.3,2.5,6.3,3.8c0.7,3.9,1.4,6.3,1.4,6.5
				c0,0.1,1.3,0.8,3.2,1.4c1,3.3,3.2,6.7,7.2,10.1c3.1,2.7,5.5,6.7,7.9,9.4c-2.5,3.1-3.6,5.3-9.8,6.4c-20.2,3.6-18.8,27.7-14.1,27.3
				c2.8-7.8,3.4-20.7,33.9-22.4c2.7,7.1,7.1,12.1,7.1,27.2c-3.6,3.2-14.2,6.4-18.8,7.4c-9.9,2.2-16.9,9.5-20,16.5
				c-3.1,7-2.3,13.7-0.1,14.7c2.9-3.4,6.5-14.3,21.3-20.1c9.8-3.8,26.1-5.1,41.7-1.2c18.4,4.7,21.1,11.7,25.9,20.9
				c6.5-15.5-2.4-22.3-6.7-25.5c-7.3-5.3-8-3.4-19.9-9.9c-7-3.8-13.3-19.8-20.3-30.1h1.9c19,0.4,28.1,11.2,34.5,24
				c4.8-12.1-0.1-17.4-1.7-20.2c-1.6-2.9-15.5-13.5-28.8-16.7c-8.6-2.1-12.2-7.6-22.6-16.7c-0.1-0.4-0.1-0.9-0.2-1.3
				c2.2-1.7,3.8-4.5,4.1-8.9c0.4-6.4,5.5-14,11.8-21.1c2.6,0.8,4.7,1.1,4.7,1.1s-3.9,20.7-1.5,18.2c2.4-2.6,16.2-22.2,16.2-22.2
				c1.9,17.1,5.1,20.6,6.2,18.7c1-2,6.5-21.1,8.7-29.9c2.1-8.8,8.5-15.2,8.5-15.2c0.5-0.5,1-1,1.6-1.5
				c34.6-32.5,66.9-77.8,77.5-94.2c1-2.1,2-4.3,2.9-6.5c2.2-5,4.2-10.1,6-15.3c1.4-1.6,2.4-3,2.9-4.1c3.9-9.8,28.8-62.7,29.3-69.1
				c17-3.3,37.7-7.9,41-8.9c5.2-1.5,2.1-13.8-11.3-21.8L569.1,167.7z"/>
		</g>
	</g>
</g>
</svg>
